<svg width="150" height="124" viewBox="0 0 150 124" fill="none" xmlns="http://www.w3.org/2000/svg">
<path d="M74.8199 0C41.0739 0 13.6191 27.5515 13.6191 61.4163C13.6191 95.2812 41.0739 122.833 74.8199 122.833C108.566 122.833 136.021 95.2812 136.021 61.4163C136.021 27.5515 108.566 0 74.8199 0ZM74.8199 119.414C42.9529 119.414 17.0269 93.3964 17.0269 61.4171C17.0269 29.4379 42.9529 3.42051 74.8199 3.42051C106.687 3.42051 132.613 29.4379 132.613 61.4171C132.613 93.3956 106.687 119.414 74.8199 119.414Z" fill="#004461"/>
<path d="M74.819 5.146C43.9006 5.146 18.7461 30.3891 18.7461 61.4163C18.7461 92.4438 43.8998 117.686 74.819 117.686C105.737 117.686 130.891 92.4438 130.891 61.4163C130.892 30.3891 105.737 5.146 74.819 5.146ZM74.819 116.974C44.2916 116.974 19.4562 92.0515 19.4562 61.4163C19.4562 30.7814 44.2916 5.85778 74.819 5.85778C105.346 5.85778 130.182 30.7814 130.182 61.4163C130.182 92.0515 105.346 116.974 74.819 116.974Z" fill="#DA3925"/>
<path d="M0 49.6187L9.73644 60.9915L0 72.812H40.65C39.5625 69.1513 38.9737 65.2568 38.9737 61.2149C38.9737 57.1739 39.5625 53.2786 40.65 49.6187H0Z" fill="#DA3925"/>
<path d="M109.039 49.6187C110.127 53.2794 110.715 57.1739 110.715 61.2149C110.715 65.256 110.127 69.1513 109.039 72.812H149.689L139.953 61.4391L149.689 49.6187H109.039Z" fill="#DA3925"/>
<path d="M19.3633 63.9724V58.5984H22.5952V59.1757H20.0117V60.9915H22.4278V61.5688H20.0117V63.3951H22.637V63.9724H19.3633ZM26.6926 59.9419C26.6613 59.676 26.534 59.4695 26.3108 59.3226C26.0877 59.1757 25.814 59.1022 25.4898 59.1022C25.2527 59.1022 25.0452 59.1407 24.8675 59.2176C24.6914 59.2946 24.5537 59.4004 24.4543 59.5352C24.3567 59.6699 24.3079 59.823 24.3079 59.9944C24.3079 60.1378 24.3418 60.2612 24.4099 60.3644C24.4796 60.4658 24.5685 60.5506 24.6766 60.6189C24.7847 60.6854 24.898 60.7405 25.0165 60.7842C25.135 60.8262 25.244 60.8603 25.3433 60.8865L25.8872 61.0335C26.0267 61.0702 26.1818 61.121 26.3526 61.1856C26.5252 61.2504 26.69 61.3387 26.8468 61.4507C27.0055 61.5609 27.1362 61.7026 27.2391 61.8758C27.3419 62.0489 27.3934 62.2615 27.3934 62.5134C27.3934 62.8038 27.3175 63.0662 27.1659 63.3007C27.016 63.5351 26.7963 63.7213 26.507 63.8595C26.2193 63.9977 25.8698 64.0668 25.4584 64.0668C25.0749 64.0668 24.7429 64.0048 24.4622 63.8806C24.1832 63.7563 23.9636 63.5831 23.8032 63.361C23.6446 63.1388 23.5548 62.8808 23.5339 62.5869H24.2033C24.2207 62.7898 24.2887 62.9578 24.4073 63.0907C24.5275 63.2219 24.6792 63.3199 24.8622 63.3846C25.047 63.4476 25.2458 63.479 25.4584 63.479C25.706 63.479 25.9282 63.4388 26.1252 63.3584C26.3222 63.2761 26.4781 63.1625 26.5932 63.0172C26.7083 62.8703 26.7658 62.6989 26.7658 62.5029C26.7658 62.3245 26.7162 62.1793 26.6167 62.0674C26.5174 61.9554 26.3866 61.8644 26.2246 61.7945C26.0625 61.7245 25.8872 61.6633 25.6989 61.6107L25.0401 61.4218C24.6217 61.3011 24.2905 61.1288 24.0464 60.9049C23.8023 60.681 23.6803 60.388 23.6803 60.0259C23.6803 59.725 23.7614 59.4626 23.9235 59.2386C24.0874 59.013 24.307 58.838 24.5825 58.7139C24.8596 58.5879 25.169 58.5249 25.5107 58.5249C25.8559 58.5249 26.1627 58.587 26.4312 58.7112C26.6996 58.8336 26.9123 59.0016 27.0691 59.215C27.2277 59.4285 27.3114 59.6708 27.3201 59.9419H26.6926ZM28.1667 59.1757V58.5984H32.1831V59.1757H30.4991V63.9724H29.8507V59.1757H28.1667ZM33.2983 64.0144C33.1693 64.0144 33.0586 63.968 32.9662 63.8753C32.8738 63.7826 32.8276 63.6715 32.8276 63.5421C32.8276 63.4126 32.8738 63.3015 32.9662 63.2088C33.0586 63.1161 33.1693 63.0697 33.2983 63.0697C33.4273 63.0697 33.538 63.1161 33.6304 63.2088C33.7227 63.3015 33.7689 63.4126 33.7689 63.5421C33.7689 63.6278 33.7472 63.7065 33.7036 63.7782C33.6617 63.8499 33.6051 63.9076 33.5337 63.9514C33.4639 63.9934 33.3854 64.0144 33.2983 64.0144Z" fill="white"/>
<path d="M120.482 58.5986V63.9727H119.833V59.2809H119.802L118.494 60.152V59.4908L119.833 58.5986H120.482ZM123.737 64.0461C123.378 64.0461 123.06 63.9823 122.785 63.8546C122.511 63.7251 122.298 63.5475 122.144 63.3219C121.991 63.0945 121.915 62.8355 121.917 62.5451C121.915 62.3177 121.959 62.1078 122.05 61.9154C122.141 61.7212 122.265 61.5594 122.421 61.4299C122.58 61.2988 122.757 61.2157 122.953 61.1807V61.1492C122.696 61.0827 122.492 60.9384 122.341 60.7162C122.189 60.4923 122.114 60.2378 122.116 59.9526C122.114 59.6797 122.183 59.4357 122.322 59.2205C122.462 59.0054 122.653 58.8356 122.898 58.7115C123.143 58.5873 123.423 58.5251 123.737 58.5251C124.047 58.5251 124.324 58.5873 124.568 58.7115C124.812 58.8356 125.004 59.0054 125.144 59.2205C125.285 59.4357 125.356 59.6797 125.358 59.9526C125.356 60.2378 125.278 60.4923 125.125 60.7162C124.974 60.9384 124.773 61.0827 124.521 61.1492V61.1807C124.714 61.2157 124.889 61.2988 125.044 61.4299C125.199 61.5594 125.323 61.7212 125.416 61.9154C125.508 62.1078 125.555 62.3177 125.557 62.5451C125.555 62.8355 125.476 63.0945 125.322 63.3219C125.168 63.5475 124.955 63.7251 124.681 63.8546C124.409 63.9823 124.094 64.0461 123.737 64.0461ZM123.737 63.4688C123.979 63.4688 124.189 63.4295 124.364 63.3508C124.54 63.272 124.676 63.1609 124.773 63.0174C124.868 62.874 124.917 62.7061 124.919 62.5137C124.917 62.3108 124.864 62.1314 124.761 61.9758C124.659 61.82 124.519 61.6976 124.341 61.6084C124.165 61.5191 123.964 61.4745 123.737 61.4745C123.509 61.4745 123.305 61.5191 123.125 61.6084C122.947 61.6976 122.807 61.82 122.704 61.9758C122.603 62.1314 122.553 62.3108 122.555 62.5137C122.553 62.7061 122.599 62.874 122.693 63.0174C122.789 63.1609 122.926 63.272 123.104 63.3508C123.282 63.4295 123.493 63.4688 123.737 63.4688ZM123.737 60.9183C123.928 60.9183 124.098 60.8798 124.247 60.8028C124.397 60.7258 124.514 60.6183 124.599 60.4801C124.685 60.3419 124.729 60.1801 124.73 59.9946C124.729 59.8126 124.686 59.6543 124.603 59.5197C124.519 59.3832 124.402 59.2783 124.255 59.2048C124.106 59.1296 123.934 59.0919 123.737 59.0919C123.537 59.0919 123.361 59.1296 123.211 59.2048C123.061 59.2783 122.945 59.3832 122.863 59.5197C122.781 59.6543 122.741 59.8126 122.743 59.9946C122.741 60.1801 122.783 60.3419 122.866 60.4801C122.952 60.6183 123.069 60.7258 123.219 60.8028C123.369 60.8798 123.541 60.9183 123.737 60.9183ZM128.263 58.5251C128.484 58.5269 128.703 58.5689 128.922 58.6511C129.143 58.7333 129.343 58.8698 129.524 59.0605C129.705 59.2494 129.851 59.5074 129.96 59.8346C130.07 60.1617 130.126 60.5719 130.126 61.0652C130.126 61.5428 130.08 61.967 129.989 62.3378C129.901 62.7069 129.771 63.0183 129.602 63.272C129.435 63.5256 129.231 63.7181 128.991 63.8493C128.752 63.9805 128.482 64.0461 128.18 64.0461C127.88 64.0461 127.612 63.9866 127.377 63.8677C127.144 63.747 126.952 63.5799 126.802 63.3665C126.654 63.1513 126.559 62.902 126.517 62.6186H127.155C127.212 62.8653 127.327 63.0691 127.497 63.23C127.67 63.3892 127.898 63.4688 128.18 63.4688C128.593 63.4688 128.919 63.2878 129.158 62.9256C129.399 62.5635 129.519 62.0518 129.519 61.3906H129.477C129.38 61.5375 129.263 61.6644 129.129 61.7711C128.995 61.8778 128.846 61.96 128.682 62.0177C128.518 62.0754 128.344 62.1044 128.159 62.1044C127.852 62.1044 127.571 62.0282 127.315 61.876C127.06 61.7221 126.856 61.5113 126.703 61.2436C126.551 60.9743 126.475 60.6663 126.475 60.32C126.475 59.9911 126.549 59.6902 126.695 59.4173C126.843 59.1427 127.051 58.924 127.317 58.7613C127.586 58.5986 127.901 58.5199 128.263 58.5251ZM128.263 59.1024C128.044 59.1024 127.846 59.1575 127.67 59.2678C127.496 59.3762 127.357 59.5232 127.254 59.7086C127.153 59.8923 127.102 60.0961 127.102 60.32C127.102 60.5439 127.152 60.7477 127.249 60.9314C127.348 61.1133 127.484 61.2585 127.655 61.367C127.827 61.4737 128.023 61.5271 128.243 61.5271C128.409 61.5271 128.562 61.4947 128.705 61.4299C128.848 61.3635 128.973 61.2734 129.08 61.1597C129.187 61.0442 129.272 60.9139 129.333 60.7687C129.394 60.6217 129.425 60.4687 129.425 60.3095C129.425 60.0996 129.374 59.9028 129.273 59.7191C129.174 59.5354 129.036 59.3867 128.86 59.273C128.685 59.1593 128.487 59.1024 128.263 59.1024ZM132.901 64.0461C132.506 64.0461 132.17 63.9386 131.894 63.7233C131.617 63.5064 131.405 63.1924 131.259 62.7813C131.112 62.3685 131.038 61.8699 131.038 61.2857C131.038 60.7048 131.112 60.2089 131.259 59.7978C131.406 59.385 131.619 59.0701 131.896 58.8532C132.175 58.6345 132.51 58.5251 132.901 58.5251C133.291 58.5251 133.625 58.6345 133.902 58.8532C134.181 59.0701 134.393 59.385 134.54 59.7978C134.688 60.2089 134.762 60.7048 134.762 61.2857C134.762 61.8699 134.689 62.3685 134.543 62.7813C134.396 63.1924 134.184 63.5064 133.907 63.7233C133.63 63.9386 133.295 64.0461 132.901 64.0461ZM132.901 63.4688C133.291 63.4688 133.594 63.2799 133.81 62.902C134.026 62.5242 134.135 61.9854 134.135 61.2857C134.135 60.8203 134.085 60.424 133.986 60.097C133.888 59.7698 133.747 59.5206 133.562 59.3491C133.379 59.1777 133.158 59.0919 132.901 59.0919C132.514 59.0919 132.211 59.2835 131.993 59.6666C131.776 60.048 131.666 60.5876 131.666 61.2857C131.666 61.7509 131.715 62.1463 131.813 62.4717C131.91 62.7971 132.051 63.0446 132.234 63.2143C132.419 63.384 132.64 63.4688 132.901 63.4688Z" fill="white"/>
<path d="M34.6818 38.7241L33.3828 40.4896L31.3084 39.7954L32.5802 41.581L31.2812 43.3465L33.3661 42.6843L34.6379 44.469L34.6547 42.2751L36.7395 41.613L34.665 40.9188L34.6818 38.7241Z" fill="#004461"/>
<path d="M117.925 39.7954L115.851 40.4896L114.552 38.7241L114.569 40.9188L112.494 41.613L114.579 42.2751L114.596 44.469L115.868 42.6843L117.952 43.3465L116.653 41.581L117.925 39.7954Z" fill="#004461"/>
<path d="M34.8751 79.3525L33.5762 81.1188L31.5017 80.4247L32.7735 82.2102L31.4746 83.9757L33.5594 83.3135L34.8313 85.0982L34.848 82.9044L36.9329 82.2422L34.8584 81.548L34.8751 79.3525Z" fill="#DA3925"/>
<path d="M118.117 80.4247L116.042 81.1188L114.743 79.3525L114.76 81.548L112.686 82.2422L114.77 82.9044L114.787 85.0982L116.059 83.3135L118.144 83.9757L116.845 82.2102L118.117 80.4247Z" fill="#DA3925"/>
<path d="M74.821 97.7145C94.9087 97.7145 111.192 81.3734 111.192 61.2147C111.192 41.0564 94.9087 24.7148 74.821 24.7148C54.7334 24.7148 38.4492 41.0564 38.4492 61.2147C38.4492 81.3734 54.7334 97.7145 74.821 97.7145Z" fill="#004461"/>
<path d="M96.7816 52.1814L92.1116 51.5104L92.6303 47.0755L92.1595 46.9682C90.2726 46.5358 88.3983 46.3164 86.5872 46.3164C80.0398 46.3164 75.9961 49.098 74.82 50.0332C73.6439 49.098 69.6003 46.3164 63.0522 46.3164C61.241 46.3164 59.366 46.5358 57.4798 46.9682L57.0091 47.0755L57.5277 51.5104L52.8586 52.1814L53.4219 55.9782L49.9727 56.3738L55.4421 76.1138L71.3405 74.8071L72.5708 75.7535H74.8176L74.8224 75.7447V75.7535H77.1992L78.4296 74.8071L94.1981 76.1138L99.6675 56.3738L96.2183 55.9782L96.7816 52.1814ZM74.279 72.9663C72.6059 71.9398 70.3782 71.421 67.636 71.421C63.2046 71.421 58.6998 72.7581 57.0793 73.2914L54.4902 55.8557L54.0809 53.0974L57.653 52.5841L58.2266 57.4915L59.6461 69.6323L60.2293 69.4994C60.2644 69.4914 68.7953 67.6202 74.279 72.9255V72.9663ZM74.279 53.4049C68.6054 49.4911 61.9974 49.9747 60.9929 50.0788L61.0719 50.7954C62.0285 50.7073 68.7969 50.2598 74.279 54.288V56.2833C69.0314 52.6642 62.9828 52.8083 61.3088 52.9324L61.3886 53.6523C63.0498 53.5442 69.2126 53.4449 74.279 57.1681V59.1626C70.3942 56.4843 66.0809 55.8669 63.4184 55.7805C63.1152 55.7709 62.8288 55.7653 62.5719 55.7669C62.2639 55.7685 61.9982 55.7773 61.766 55.7885C61.7213 55.7909 61.6671 55.7925 61.6256 55.7949L61.7054 56.5171C61.9503 56.5059 62.2535 56.4987 62.599 56.4987C62.8575 56.4987 63.1447 56.5051 63.4519 56.5171C63.732 56.5283 64.0304 56.5459 64.3455 56.5707C67.0407 56.7813 70.9008 57.5652 74.2798 60.0481V62.0418C71.9764 60.4533 69.5237 59.5893 67.3495 59.1337C66.9873 59.0577 66.6346 58.9936 66.2899 58.9392C65.9493 58.8847 65.6181 58.8391 65.299 58.8022C63.9075 58.6421 62.7322 58.6325 61.9439 58.6613L62.0245 59.3867C62.9907 59.3603 64.541 59.3948 66.3506 59.699C66.7 59.7575 67.0551 59.8231 67.4213 59.904C67.8075 59.9889 68.204 60.0921 68.6046 60.205C70.4644 60.7295 72.4423 61.579 74.2798 62.9298V64.9227C74.0756 64.7817 73.8697 64.6512 73.6639 64.5215C72.9235 64.0563 72.1735 63.6536 71.4243 63.3197C70.9096 63.0907 70.3974 62.8953 69.8899 62.7192C68.3947 62.2011 66.953 61.8985 65.6724 61.7303C64.2985 61.5494 63.1104 61.5174 62.2623 61.5342L62.3429 62.2636C63.5564 62.25 65.4602 62.3381 67.6032 62.8289C68.9086 63.1283 70.3016 63.5815 71.6852 64.2509C72.5644 64.6761 73.4365 65.1909 74.2798 65.8106V66.4648V66.6289V67.8027C69.9594 64.8242 65.0987 64.399 62.5806 64.4118L62.6612 65.142C65.1961 65.1509 70.1062 65.6241 74.2798 68.6907V71.473C70.9368 68.6971 66.8365 68.0838 63.8668 68.0838C62.4075 68.0838 61.2378 68.2311 60.578 68.3384L59.3875 58.1537L58.8171 53.2735L58.7253 52.4865L58.6336 51.6994L58.1915 47.9194C59.8399 47.5735 61.4732 47.3989 63.053 47.3989C69.4758 47.3989 73.4277 50.295 74.2798 50.9868L74.279 53.4049ZM75.3602 68.6891C79.5338 65.6225 84.4441 65.1493 86.9789 65.1404L87.0595 64.4102C84.5414 64.3966 79.6798 64.8226 75.3602 67.8011V66.6265V66.4624V65.8082C76.2035 65.1885 77.0764 64.6737 77.9548 64.2485C79.3383 63.5791 80.7316 63.1259 82.0369 62.8265C84.18 62.3357 86.0837 62.2468 87.2973 62.2612L87.3779 61.5318C86.5289 61.5142 85.3417 61.547 83.9678 61.7279C82.688 61.8969 81.2454 62.1987 79.75 62.7168C79.2426 62.8929 78.7304 63.0883 78.2157 63.3173C77.4665 63.6512 76.7157 64.0547 75.9761 64.5191C75.7695 64.6488 75.5636 64.7793 75.3602 64.9203V62.9274C77.1977 61.5774 79.1756 60.7279 81.0348 60.2034C81.4353 60.0905 81.8319 59.9873 82.2188 59.9024C82.585 59.8215 82.9409 59.7567 83.2896 59.6974C85.0991 59.3931 86.6494 59.3587 87.6156 59.3851L87.6962 58.6597C86.9079 58.6309 85.7327 58.6405 84.3412 58.8006C84.022 58.8375 83.6909 58.8831 83.3494 58.9376C83.0047 58.9928 82.6521 59.0561 82.2898 59.1321C80.1156 59.5885 77.6628 60.4525 75.3594 62.0402V60.0465C78.7383 57.5636 82.5986 56.7797 85.2938 56.5691C85.609 56.5443 85.9074 56.5267 86.1874 56.5155C86.4938 56.5035 86.7819 56.4971 87.0404 56.4971C87.3858 56.4971 87.689 56.5043 87.9332 56.5155L88.013 55.7933C87.9707 55.7909 87.9172 55.7893 87.8726 55.7869C87.6404 55.7757 87.3755 55.7677 87.0667 55.7653C86.8098 55.7637 86.5225 55.7685 86.2194 55.7789C83.5569 55.8653 79.2434 56.4827 75.3586 59.161V57.1665C80.4252 53.4433 86.588 53.5434 88.2491 53.6507L88.3289 52.9308C86.655 52.8059 80.6063 52.6626 75.3586 56.2809V54.2856C80.8401 50.2574 87.6092 50.7049 88.5659 50.793L88.6457 50.0764C87.6412 49.9731 81.0332 49.4895 75.3594 53.4024V50.9812C76.2075 50.2886 80.1412 47.3941 86.5864 47.3941C88.1662 47.3941 89.7994 47.5695 91.4478 47.9146L91.0058 51.6938L90.914 52.4817L90.8223 53.2687L90.2518 58.1489L89.0614 68.3336C87.0603 68.0077 80.3462 67.3279 75.3602 71.4682V68.6891ZM95.1483 55.8557L92.5585 73.2914C90.9372 72.7581 86.4332 71.421 82.0018 71.421C79.2602 71.421 77.0325 71.9398 75.3594 72.9663V72.9263C78.5636 69.8244 82.7773 69.1615 85.7725 69.1615C87.8917 69.1615 89.3949 69.4954 89.41 69.4986L89.9933 69.6307L91.4127 57.4915L91.9864 52.5841L95.5585 53.0974L95.1483 55.8557Z" fill="white"/>
<path d="M37.8901 29.021L38.2314 29.2188C37.8528 29.8768 37.8794 29.9764 38.616 30.4031L41.9665 32.3444C43.269 33.099 43.753 34.4853 42.8558 36.0447C42.0053 37.523 40.7307 38.0105 39.0893 37.0956L35.8735 35.2324C35.1459 34.8108 34.9783 34.894 34.5647 35.5919L34.2324 35.3993C34.5121 34.9965 35.4352 33.3919 35.6638 32.9114L35.9961 33.1039C35.5954 33.8212 35.6075 34.0085 36.3351 34.4301L39.3083 36.1528C40.8084 37.0219 41.7923 36.8107 42.5287 35.5307C43.0733 34.5841 42.7578 33.4879 41.6709 32.8582L38.3473 30.9325C37.5927 30.4954 37.5115 30.5324 37.0839 31.2342L36.7425 31.0364C37.0066 30.6606 37.7393 29.3663 37.8901 29.021Z" fill="#DA3925"/>
<path d="M45.7531 22.2292L50.393 26.6221L50.0727 26.9629L41.9907 26.3374L45.4914 29.6517C46.1704 30.2946 46.3447 30.2305 46.9069 29.6324L47.1786 29.8896C46.708 30.3598 45.7613 31.3668 45.3284 31.8728L45.0492 31.6085C45.6685 30.9498 45.7496 30.7118 45.0932 30.0904L41.5397 26.726C40.9814 26.1975 40.5885 26.312 39.9337 27.0086L39.6621 26.7514C39.9125 26.5306 40.6595 25.7209 40.8365 25.5022L48.8791 26.0331L45.3331 22.6759C44.7296 22.1045 44.5465 22.1171 43.9411 22.746L43.6619 22.4817C44.04 22.1098 45.1362 20.9439 45.4556 20.5737L45.7348 20.838C45.1155 21.4968 45.1193 21.6292 45.7531 22.2292Z" fill="#DA3925"/>
<path d="M53.1425 22.8726L50.4351 18.7417C49.9735 18.0373 49.8209 18.0508 49.1132 18.5054L48.9023 18.1836C49.3354 17.9352 50.8636 16.914 51.2942 16.605L51.5051 16.9267C50.8175 17.393 50.7447 17.5282 51.2064 18.2326L53.9138 22.3635C54.3811 23.0766 54.6053 23.1155 55.2782 22.6838L55.4892 23.0056C55.0444 23.2742 53.5222 24.2664 53.0973 24.5842L52.8864 24.2625C53.5567 23.8076 53.6041 23.5769 53.1425 22.8726Z" fill="#DA3925"/>
<path d="M62.4408 19.8985L57.9765 14.7722C57.3462 14.0387 57.1397 13.9258 56.4379 14.1822L56.3066 13.8202C56.7949 13.6751 58.4094 13.0743 58.8798 12.8803L59.0146 13.252C58.2615 13.5493 58.2712 13.6676 58.8546 14.3628L62.279 18.4178L62.2987 12.994C62.2949 12.1314 62.1761 12.1083 61.4611 12.3584L61.3263 11.9868C61.8109 11.8319 62.9974 11.4207 63.3377 11.2632L63.4654 11.6153C62.9293 11.8111 62.8549 11.9711 62.8667 12.8862L62.7917 19.7703L62.4408 19.8985Z" fill="#DA3925"/>
<path d="M69.2254 10.7433L69.5698 13.7001L71.0017 13.5321C71.4859 13.4754 71.6315 13.2906 71.5424 12.5256L71.9545 12.4772L72.2459 14.9791L71.8338 15.0275C71.7291 14.128 71.6104 14.0057 71.054 14.071L69.6323 14.2377L69.9008 16.5432C69.9948 17.3496 70.1728 17.444 71.1618 17.328L71.9036 17.241C72.9338 17.1201 73.1704 16.82 73.3772 15.7268L73.8203 15.6748C73.7077 16.2329 73.58 16.9291 73.5304 17.4904C71.8167 17.6599 69.7459 17.9027 68.1424 18.1223L68.099 17.7501C68.9541 17.6498 69.0779 17.4571 68.984 16.6507L68.4072 11.6986C68.3121 10.8819 68.1583 10.816 67.3032 10.9163L67.2598 10.5441C68.8396 10.3903 70.8383 10.1559 72.3285 9.94971L72.5284 11.6659L72.1265 11.713C71.8911 10.5879 71.6876 10.4545 70.6059 10.5814L69.2254 10.7433Z" fill="#DA3925"/>
<path d="M79.5837 14.2998L78.4813 14.1706L78.2309 16.3209C78.1346 17.148 78.2275 17.3371 79.0813 17.4477L79.0368 17.8302C78.515 17.7376 76.7133 17.5158 76.1934 17.4967L76.2367 17.1245C77.0609 17.2212 77.2069 17.1336 77.3141 16.2134L77.8848 11.3129C77.9799 10.4962 77.8374 10.3747 77.035 10.2701L77.0784 9.89795C77.7262 9.98442 79.3321 10.1832 80.0453 10.2459C81.9722 10.4719 82.2889 11.6932 82.1988 12.4686C82.0871 13.4302 81.2932 14.0601 80.5153 14.189C80.9206 15.1063 81.6427 16.4381 82.0775 17.097C82.3249 17.4823 82.656 17.867 83.2129 17.9322L83.1682 18.3147C82.6975 18.2282 81.9969 18.1459 81.5605 18.1262C80.9358 17.0364 80.1251 15.3903 79.5837 14.2998ZM78.5367 13.6949L79.1525 13.7881C80.5432 13.9512 81.1145 13.1694 81.2014 12.4251C81.306 11.5256 80.9326 10.7901 79.593 10.633C79.2943 10.598 79.1088 10.5762 78.8992 10.5831L78.5367 13.6949Z" fill="#DA3925"/>
<path d="M86.1191 19.0964L86.4766 17.4104L86.8859 17.5599C86.7774 18.4064 86.8332 19.2575 87.7396 19.5886C88.6173 19.909 89.4335 19.5758 89.7064 18.8226C90.0295 17.9326 89.4686 17.3179 88.867 16.6329C88.2654 15.948 87.5362 15.1279 87.9582 13.9639C88.4585 12.5847 89.6553 12.2685 90.8737 12.7136C91.3508 12.888 91.6253 13.0766 92.029 13.3017L91.7066 14.768L91.2973 14.6186C91.4537 13.8227 91.267 13.3335 90.5745 13.0808C89.7072 12.7639 89.0697 13.1515 88.8144 13.8557C88.4952 14.736 89.1527 15.541 89.7965 16.2304C90.4308 16.9162 91.0779 17.6287 90.6766 18.734C90.1731 20.1229 88.7114 20.4088 87.5322 19.9781C86.9473 19.7645 86.5444 19.5064 86.1191 19.0964Z" fill="#DA3925"/>
<path d="M95.7752 22.3203L98.4824 18.1895C98.9443 17.4851 98.8717 17.3499 98.1752 16.8779L98.3858 16.5562C98.7848 16.8567 100.325 17.8605 100.778 18.1348L100.567 18.4566C99.8683 18.0076 99.7151 17.9942 99.2539 18.6986L96.5467 22.8294C96.0792 23.5425 96.1318 23.7645 96.7941 24.2136L96.5826 24.5354C96.1606 24.232 94.6502 23.2223 94.1914 22.9567L94.402 22.6349C95.0834 23.0724 95.3132 23.0248 95.7752 22.3203Z" fill="#DA3925"/>
<path d="M110.158 26.806L108.999 27.7882L108.7 27.4703C109.259 26.9122 109.353 26.7088 108.776 26.0955L107.83 25.0886L103.68 29.0172C103.047 29.6172 103.055 29.8384 103.603 30.4361L103.331 30.6932C102.883 30.1868 101.837 29.0738 101.359 28.6107L101.638 28.3464C102.194 28.9222 102.413 28.9434 103.047 28.3434L107.197 24.4147L106.4 23.5668C105.794 22.9232 105.546 22.9013 104.814 23.3364L104.508 23.0108L105.701 22.0664C106.83 23.3732 108.93 25.592 110.158 26.806Z" fill="#DA3925"/>
<path d="M111.061 35.2676L108.859 36.5427C108.204 36.9226 108.161 37.1397 108.557 37.8481L108.224 38.0406C107.883 37.3849 107.167 36.141 106.793 35.5527L107.126 35.3601C107.539 36.058 107.725 36.1308 108.398 35.7404L110.455 34.5486L111.974 31.2767C112.242 30.617 112.222 30.4364 111.932 29.9548L112.265 29.7622C112.538 30.3007 113.237 31.4944 113.592 32.0699L113.269 32.2573C112.963 31.7254 112.788 31.6707 112.552 32.1558L111.344 34.8028L114.295 35.124C114.8 35.1683 114.886 35.0465 114.488 34.3757L114.82 34.183C115.059 34.6816 115.511 35.4659 115.811 35.9048L115.479 36.0974C115.236 35.6969 115.19 35.6997 114.428 35.6243L111.061 35.2676Z" fill="#DA3925"/>
<path d="M37.8901 93.4514L38.2314 93.2536C37.8528 92.5963 37.8794 92.4962 38.616 92.0694L41.9665 90.1286C43.269 89.3735 43.753 87.9875 42.8558 86.4278C42.0053 84.9497 40.7307 84.4621 39.0893 85.3773L35.8735 87.2405C35.1459 87.6617 34.9783 87.5784 34.5647 86.881L34.2324 87.0732C34.5121 87.4759 35.4352 89.0805 35.6638 89.5617L35.9961 89.3687C35.5954 88.6513 35.6075 88.4639 36.3351 88.0428L39.3083 86.3197C40.8084 85.451 41.7923 85.6624 42.5287 86.9418C43.0733 87.8883 42.7578 88.9844 41.6709 89.6145L38.3473 91.5402C37.5927 91.9773 37.5115 91.9405 37.0839 91.2383L36.7425 91.4361C37.0066 91.8124 37.7393 93.1063 37.8901 93.4514Z" fill="#004461"/>
<path d="M45.7531 100.244L50.393 95.8505L50.0727 95.5102L41.9907 96.1355L45.4914 92.8207C46.1704 92.1786 46.3447 92.2426 46.9069 92.8407L47.1786 92.5829C46.708 92.1129 45.7613 91.1056 45.3284 90.5996L45.0492 90.8646C45.6685 91.5228 45.7496 91.7606 45.0932 92.3827L41.5397 95.7464C40.9814 96.2756 40.5885 96.1611 39.9337 95.4646L39.6621 95.7216C39.9125 95.9426 40.6595 96.7521 40.8365 96.9706L48.8791 96.4398L45.3331 99.797C44.7296 100.368 44.5465 100.356 43.9411 99.7266L43.6619 99.9908C44.04 100.363 45.1362 101.529 45.4556 101.899L45.7348 101.635C45.1155 100.976 45.1193 100.844 45.7531 100.244Z" fill="#004461"/>
<path d="M53.1425 99.6002L50.4351 103.732C49.9735 104.436 49.8209 104.422 49.1132 103.968L48.9023 104.29C49.3354 104.538 50.8636 105.559 51.2942 105.868L51.5051 105.546C50.8175 105.08 50.7447 104.945 51.2064 104.24L53.9138 100.109C54.3811 99.3968 54.6053 99.3576 55.2782 99.7892L55.4892 99.4673C55.0444 99.1991 53.5222 98.207 53.0973 97.8892L52.8864 98.2102C53.5567 98.6658 53.6041 98.8964 53.1425 99.6002Z" fill="#004461"/>
<path d="M62.4408 102.574L57.9765 107.701C57.3462 108.434 57.1397 108.547 56.4379 108.291L56.3066 108.653C56.7949 108.797 58.4094 109.398 58.8798 109.593L59.0146 109.22C58.2615 108.923 58.2712 108.805 58.8546 108.11L62.279 104.055L62.2987 109.479C62.2949 110.341 62.1761 110.364 61.4611 110.114L61.3263 110.486C61.8109 110.641 62.9974 111.052 63.3377 111.209L63.4654 110.858C62.9293 110.661 62.8549 110.501 62.8667 109.586L62.7917 102.703L62.4408 102.574Z" fill="#004461"/>
<path d="M69.2254 111.73L69.5698 108.773L71.0017 108.941C71.4859 108.998 71.6315 109.182 71.5424 109.947L71.9545 109.995L72.2459 107.494L71.8338 107.445C71.7291 108.345 71.6104 108.467 71.054 108.402L69.6323 108.236L69.9008 105.93C69.9948 105.123 70.1728 105.029 71.1618 105.145L71.9036 105.232C72.9338 105.353 73.1704 105.653 73.3772 106.746L73.8203 106.798C73.7077 106.24 73.58 105.544 73.5304 104.982C71.8167 104.813 69.7459 104.57 68.1424 104.351L68.099 104.723C68.9541 104.823 69.0779 105.016 68.984 105.822L68.4072 110.774C68.3121 111.591 68.1583 111.657 67.3032 111.557L67.2598 111.929C68.8396 112.083 70.8383 112.317 72.3285 112.523L72.5284 110.807L72.1265 110.76C71.8911 111.885 71.6876 112.019 70.6059 111.891L69.2254 111.73Z" fill="#004461"/>
<path d="M79.5837 108.173L78.4813 108.302L78.2309 106.151C78.1346 105.324 78.2275 105.135 79.0813 105.025L79.0368 104.642C78.515 104.735 76.7133 104.957 76.1934 104.976L76.2367 105.348C77.0609 105.251 77.2069 105.34 77.3141 106.26L77.8848 111.16C77.9799 111.976 77.8374 112.098 77.035 112.203L77.0784 112.574C77.7262 112.488 79.3321 112.289 80.0453 112.227C81.9722 112.001 82.2889 110.779 82.1988 110.004C82.0871 109.043 81.2932 108.413 80.5153 108.284C80.9206 107.366 81.6427 106.035 82.0775 105.376C82.3249 104.99 82.656 104.606 83.2129 104.54L83.1682 104.158C82.6975 104.244 81.9969 104.327 81.5605 104.347C80.9358 105.436 80.1251 107.083 79.5837 108.173ZM78.5367 108.778L79.1525 108.685C80.5432 108.521 81.1145 109.304 81.2014 110.048C81.306 110.948 80.9326 111.683 79.593 111.839C79.2943 111.875 79.1088 111.896 78.8992 111.89L78.5367 108.778Z" fill="#004461"/>
<path d="M86.1191 103.377L86.4766 105.062L86.8859 104.913C86.7774 104.066 86.8332 103.215 87.7396 102.884C88.6173 102.564 89.4335 102.897 89.7064 103.65C90.0295 104.54 89.4686 105.155 88.867 105.84C88.2654 106.525 87.5362 107.345 87.9582 108.509C88.4585 109.888 89.6553 110.204 90.8737 109.759C91.3508 109.584 91.6253 109.396 92.029 109.171L91.7066 107.704L91.2973 107.854C91.4537 108.65 91.267 109.139 90.5745 109.392C89.7072 109.709 89.0697 109.321 88.8144 108.617C88.4952 107.736 89.1527 106.932 89.7965 106.242C90.4308 105.556 91.0779 104.844 90.6766 103.739C90.1731 102.349 88.7114 102.064 87.5322 102.494C86.9473 102.708 86.5444 102.966 86.1191 103.377Z" fill="#004461"/>
<path d="M95.7752 100.152L98.4824 104.283C98.9443 104.988 98.8717 105.122 98.1752 105.595L98.3858 105.917C98.7848 105.616 100.325 104.612 100.778 104.338L100.567 104.016C99.8683 104.465 99.7151 104.479 99.2539 103.774L96.5467 99.6433C96.0792 98.9299 96.1318 98.7081 96.7941 98.2589L96.5826 97.937C96.1606 98.2405 94.6502 99.2501 94.1914 99.516L94.402 99.8378C95.0834 99.3999 95.3132 99.4479 95.7752 100.152Z" fill="#004461"/>
<path d="M110.158 95.6671L108.999 94.6847L108.7 95.0025C109.259 95.5606 109.353 95.764 108.776 96.3773L107.83 97.3846L103.68 93.4556C103.047 92.8559 103.055 92.6341 103.603 92.0368L103.331 91.7798C102.883 92.2858 101.837 93.3988 101.359 93.8624L101.638 94.1266C102.194 93.5509 102.413 93.5293 103.047 94.1298L107.197 98.0579L106.4 98.9059C105.794 99.5496 105.546 99.5712 104.814 99.1365L104.508 99.4623L105.701 100.406C106.83 99.0996 108.93 96.8809 110.158 95.6671Z" fill="#004461"/>
<path d="M111.061 87.2057L108.859 85.9302C108.204 85.5507 108.161 85.3337 108.557 84.6251L108.224 84.4321C107.883 85.0879 107.167 86.3321 106.793 86.9207L107.126 87.1128C107.539 86.4154 107.725 86.3426 108.398 86.7325L110.455 87.9247L111.974 91.1963C112.242 91.8561 112.222 92.037 111.932 92.5182L112.265 92.7112C112.538 92.1723 113.237 90.9785 113.592 90.4036L113.269 90.2155C112.963 90.7479 112.788 90.8024 112.552 90.3171L111.344 87.6701L114.295 87.349C114.8 87.305 114.886 87.4267 114.488 88.0977L114.82 88.2898C115.059 87.7918 115.511 87.0071 115.811 86.5683L115.479 86.3754C115.236 86.7765 115.19 86.7733 114.428 86.8486L111.061 87.2057Z" fill="#004461"/>
</svg>
