<svg width="24" height="24" viewBox="0 0 24 24" fill="none" xmlns="http://www.w3.org/2000/svg">
<path d="M17.212 2.23709C17.2719 2.0492 17.2553 1.8453 17.1659 1.66953C17.0765 1.49377 16.9215 1.36028 16.7344 1.29796C16.5473 1.23564 16.3432 1.24951 16.1663 1.33656C15.9893 1.42362 15.8538 1.57685 15.789 1.76309L15.039 4.01209C14.9792 4.19999 14.9958 4.40389 15.0851 4.57965C15.1745 4.75542 15.3296 4.88891 15.5166 4.95123C15.7037 5.01355 15.9078 4.99968 16.0848 4.91262C16.2617 4.82557 16.3972 4.67234 16.462 4.48609L17.212 2.23709ZM21.78 2.22009C21.9205 2.36072 21.9994 2.55134 21.9994 2.75009C21.9994 2.94884 21.9205 3.13947 21.78 3.28009L19.28 5.78009C19.2114 5.85378 19.1286 5.91288 19.0366 5.95388C18.9446 5.99487 18.8452 6.01691 18.7445 6.01869C18.6438 6.02046 18.5438 6.00194 18.4504 5.96422C18.357 5.9265 18.2722 5.87035 18.201 5.79913C18.1298 5.72791 18.0736 5.64308 18.0359 5.54969C17.9982 5.4563 17.9796 5.35627 17.9814 5.25557C17.9832 5.15487 18.0052 5.05556 18.0462 4.96356C18.0872 4.87156 18.1463 4.78876 18.22 4.72009L20.72 2.22009C20.8606 2.07964 21.0513 2.00075 21.25 2.00075C21.4488 2.00075 21.6394 2.07964 21.78 2.22009ZM12.87 3.74009C12.6121 3.46376 12.2906 3.25449 11.9336 3.13041C11.5765 3.00634 11.1946 2.97119 10.8208 3.02803C10.4471 3.08486 10.0929 3.23196 9.78887 3.45659C9.48483 3.68121 9.24015 3.97657 9.07602 4.31709L3.17802 16.5601C3.01232 16.9044 2.96051 17.2926 3.03009 17.6683C3.09966 18.0441 3.28701 18.3879 3.56502 18.6501L5.00402 20.0081C5.26193 20.2513 5.58589 20.4129 5.93529 20.4726C6.28468 20.5324 6.64394 20.4877 6.96802 20.3441L8.38502 19.7161C8.8222 20.6743 9.61966 21.4214 10.6043 21.7952C11.5889 22.1691 12.6813 22.1395 13.6442 21.7129C14.6072 21.2864 15.363 20.4972 15.7477 19.5168C16.1324 18.5363 16.1149 17.4437 15.699 16.4761L19.119 14.9601C19.458 14.8099 19.7562 14.5808 19.9886 14.292C20.221 14.0031 20.381 13.6628 20.4552 13.2996C20.5294 12.9363 20.5156 12.5605 20.415 12.2037C20.3145 11.8468 20.13 11.5192 19.877 11.2481L12.87 3.74009ZM14.327 17.0821C14.5699 17.6836 14.5694 18.3559 14.3258 18.957C14.0822 19.5582 13.6145 20.0411 13.0214 20.3038C12.4283 20.5665 11.7564 20.5885 11.1475 20.365C10.5385 20.1415 10.0403 19.6901 9.75802 19.1061L14.327 17.0821ZM19 8.24909C19 8.05018 19.079 7.85942 19.2197 7.71876C19.3603 7.57811 19.5511 7.49909 19.75 7.49909H21.75C21.9489 7.49909 22.1397 7.57811 22.2803 7.71876C22.421 7.85942 22.5 8.05018 22.5 8.24909C22.5 8.44801 22.421 8.63877 22.2803 8.77942C22.1397 8.92008 21.9489 8.99909 21.75 8.99909H19.75C19.5511 8.99909 19.3603 8.92008 19.2197 8.77942C19.079 8.63877 19 8.44801 19 8.24909Z" fill="#3D3D3D"/>
</svg>
