<svg width="40" height="40" viewBox="0 0 40 40" fill="none" xmlns="http://www.w3.org/2000/svg">
<g clip-path="url(#clip0_1574_11943)">
<path d="M35.4215 38.428H11.9889C11.0231 38.428 10.2402 37.6459 10.2402 36.6812V1.74675C10.2402 0.782051 11.0231 0 11.9889 0H28.4423L37.1701 8.46291V36.6812C37.1701 37.6459 36.3872 38.428 35.4215 38.428Z" fill="#EFEFEF"/>
<path d="M28.3242 0V7.58C28.3242 8.06231 28.7157 8.45333 29.1985 8.45333H37.161L28.443 0L28.3242 0Z" fill="#4646F9"/>
<path d="M31.1367 17.8519C31.1367 13.6996 27.8094 10.3335 23.7051 10.3335C19.6007 10.3335 16.2734 13.6996 16.2734 17.8519C16.2734 20.0886 17.2392 22.0967 18.7716 23.4737C20.0704 24.6407 20.857 26.2965 20.857 28.0712V28.6163H26.553V28.0712C26.553 26.2965 27.3397 24.6407 28.6385 23.4737C30.171 22.0967 31.1367 20.0885 31.1367 17.8519Z" fill="#FFBF4D"/>
<path d="M23.6852 8.7772C23.4491 8.7772 23.2578 8.58592 23.2578 8.34985V7.42344C23.2578 7.18738 23.4491 6.99609 23.6852 6.99609C23.9212 6.99609 24.1125 7.18738 24.1125 7.42344V8.34985C24.1125 8.58592 23.9212 8.7772 23.6852 8.7772Z" fill="#FFBF4D"/>
<path d="M16.0729 11.9735C15.9629 11.9735 15.853 11.9313 15.7694 11.8471L15.12 11.1921C14.9538 11.0244 14.9549 10.7539 15.1225 10.5877C15.2903 10.4216 15.5608 10.4228 15.7269 10.5903L16.3763 11.2453C16.6284 11.4996 16.4307 11.9735 16.0729 11.9735Z" fill="#FFBF4D"/>
<path d="M13.6601 17.216H12.7418C12.5057 17.216 12.3145 17.0247 12.3145 16.7887C12.3145 16.5526 12.5057 16.3613 12.7418 16.3613H13.6601C13.8962 16.3613 14.0874 16.5526 14.0874 16.7887C14.0874 17.0247 13.8962 17.216 13.6601 17.216Z" fill="#FFBF4D"/>
<path d="M34.6679 17.1779H33.7496C33.5135 17.1779 33.3223 16.9867 33.3223 16.7506C33.3223 16.5145 33.5135 16.3232 33.7496 16.3232H34.6679C34.904 16.3232 35.0953 16.5145 35.0953 16.7506C35.0953 16.9867 34.904 17.1779 34.6679 17.1779Z" fill="#FFBF4D"/>
<path d="M31.3094 11.9465C30.9517 11.9465 30.7539 11.4726 31.0059 11.2183L31.6553 10.5632C31.8215 10.3957 32.092 10.3944 32.2597 10.5606C32.4273 10.7268 32.4285 10.9973 32.2623 11.165L31.6129 11.8201C31.5294 11.9043 31.4194 11.9465 31.3094 11.9465Z" fill="#FFBF4D"/>
<path d="M26.6307 25.8257H20.7801C20.0289 25.8257 19.4199 26.4347 19.4199 27.1859C19.4199 27.9371 20.0289 28.546 20.7801 28.546H26.6307C27.3819 28.546 27.9909 27.9371 27.9909 27.1859C27.9909 26.4347 27.3819 25.8257 26.6307 25.8257Z" fill="#4646F9"/>
<path d="M26.5392 28.5459H20.8691V29.8077C20.8691 30.4685 21.4049 31.0043 22.0657 31.0043H25.3426C26.0035 31.0043 26.5392 30.4685 26.5392 29.8077V28.5459Z" fill="#5252FF"/>
<path d="M22.6752 14.7559C20.5397 14.7559 18.8086 16.4851 18.8086 18.6183C18.8086 20.7514 20.5397 22.4806 22.6752 22.4806C24.8106 22.4806 26.5418 20.7514 26.5418 18.6183H22.6752V14.7559Z" fill="white"/>
<path d="M24.5586 12.8735V16.7359H28.4252C28.4252 14.6028 26.6941 12.8735 24.5586 12.8735Z" fill="white"/>
<path d="M32.7422 35.1269H32.1344C31.8983 35.1269 31.707 34.9356 31.707 34.6996C31.707 34.4635 31.8983 34.2722 32.1344 34.2722H32.7422C32.9783 34.2722 33.1696 34.4635 33.1696 34.6996C33.1696 34.9356 32.9783 35.1269 32.7422 35.1269Z" fill="#D6D6D6"/>
<path d="M29.9259 35.1269H13.4859C13.2499 35.1269 13.0586 34.9356 13.0586 34.6996C13.0586 34.4635 13.2499 34.2722 13.4859 34.2722H29.9259C30.1619 34.2722 30.3532 34.4635 30.3532 34.6996C30.3532 34.9356 30.1619 35.1269 29.9259 35.1269Z" fill="#D6D6D6"/>
<path d="M7.96891 40C9.82635 40.0034 11.2668 38.3805 11.041 36.5388L10.0672 28.5958L5.88327 28.5876L4.90814 36.5387C4.68276 38.3758 6.11592 39.9965 7.96891 40Z" fill="#89E5B3"/>
<path d="M7.96742 31.7133C11.5889 31.7133 14.5247 28.7807 14.5247 25.163C14.5247 21.5454 11.5889 18.6128 7.96742 18.6128C4.34594 18.6128 1.41016 21.5454 1.41016 25.163C1.41016 28.7807 4.34594 31.7133 7.96742 31.7133Z" fill="#53D390"/>
<path d="M3.86914 25.1629C3.86914 22.9056 5.7076 21.0691 7.96743 21.0691C10.2273 21.0691 12.0657 22.9056 12.0657 25.1629C12.0657 27.4203 10.2273 29.2568 7.96743 29.2568C5.7076 29.2568 3.86914 27.4204 3.86914 25.1629Z" fill="white"/>
<path d="M6.0543 25.3284C5.81824 25.3284 5.62695 25.1371 5.62695 24.901C5.62695 23.7564 6.55892 22.8252 7.70456 22.8252C7.94063 22.8252 8.13191 23.0165 8.13191 23.2525C8.13191 23.4886 7.94063 23.6799 7.70456 23.6799C7.0302 23.6799 6.48165 24.2277 6.48165 24.901C6.48165 25.137 6.29029 25.3284 6.0543 25.3284Z" fill="#D6D6D6"/>
<path d="M39.5306 25.7396L37.0782 22.0088L34.6582 25.7443L39.5306 25.744V25.7396Z" fill="#FFDBB3"/>
<path d="M34.6582 25.7442V25.7443V35.5168H39.5306V25.7439L34.6582 25.7442Z" fill="#5252FF"/>
<path d="M36.8434 30.6998C36.6073 30.6998 36.416 30.5085 36.416 30.2724V28.277C36.416 28.0409 36.6073 27.8496 36.8434 27.8496C37.0794 27.8496 37.2707 28.0409 37.2707 28.277V30.2724C37.2707 30.5085 37.0794 30.6998 36.8434 30.6998Z" fill="white"/>
<path d="M36.8434 33.5862C36.6073 33.5862 36.416 33.3949 36.416 33.1589V32.2814C36.416 32.0453 36.6073 31.854 36.8434 31.854C37.0794 31.854 37.2707 32.0453 37.2707 32.2814V33.1589C37.2707 33.3949 37.0794 33.5862 36.8434 33.5862Z" fill="white"/>
<path d="M39.5306 37.6184V35.5168H34.6582V37.6184C34.6582 38.9337 35.7244 40 37.0398 40H37.1491C38.4644 40 39.5306 38.9338 39.5306 37.6184Z" fill="#4646F9"/>
<path d="M5.01875 16.5939L5.01567 16.5908C3.71969 15.2568 3.05755 13.388 3.2061 11.4836L3.68217 6.3994L6.44183 6.3877L6.86772 11.4657C7.00277 13.3702 6.3261 15.2469 5.01875 16.5939Z" fill="#ED5132"/>
<path d="M3.66938 6.43256H3.67296L6.43262 6.41402H6.43621C6.91348 6.04085 8.14442 4.53761 6.35553 2.81778C5.42348 1.92171 6.10202 0 6.10202 0C6.10202 0 2.63006 1.38684 2.87356 4.87017C2.91869 5.51504 3.19647 6.06581 3.66938 6.43256Z" fill="#FFDBB3"/>
<path d="M6.86814 6.41162L3.26917 6.43136L3.25977 8.79017L6.85874 8.77042L6.86814 6.41162Z" fill="#FF8A80"/>
<path d="M3.22737 33.8767L3.88951 34.017L3.12378 34.2342C2.72053 34.3486 2.41258 34.6751 2.32207 35.0845L2.1801 35.7264L2.03814 35.0845C1.94763 34.6751 1.63968 34.3486 1.23643 34.2342L0.470703 34.017L1.13284 33.8767C1.56156 33.7858 1.9001 33.4573 2.00378 33.0315L2.1801 32.3076L2.35643 33.0315C2.4601 33.4573 2.79874 33.7858 3.22737 33.8767Z" fill="#C2C2FF"/>
<path d="M38.2703 3.27853L38.9325 3.41887L38.1667 3.63605C37.7635 3.75041 37.4556 4.07699 37.365 4.48631L37.2231 5.12828L37.0811 4.48631C36.9906 4.07699 36.6826 3.75041 36.2794 3.63605L35.5137 3.41887L36.1758 3.27853C36.6045 3.18768 36.9431 2.85913 37.0467 2.43332L37.2231 1.70947L37.3994 2.4334C37.5031 2.85913 37.8417 3.18768 38.2703 3.27853Z" fill="#FF8A80"/>
</g>
<defs>
<clipPath id="clip0_1574_11943">
<rect width="40" height="40" fill="white"/>
</clipPath>
</defs>
</svg>
