<svg width="40" height="40" viewBox="0 0 40 40" fill="none" xmlns="http://www.w3.org/2000/svg">
<path d="M20.0009 16.0967C11.1109 16.0967 3.9043 23.3033 3.9043 32.1932V40.0001H36.0974V32.1932C36.0974 23.3034 28.8908 16.0967 20.0009 16.0967Z" fill="#0A4EAF"/>
<path d="M20 16.0967V40.0001H36.0966V32.1932C36.0966 23.3034 28.8899 16.0967 20 16.0967Z" fill="#063E8B"/>
<path d="M19.9996 24.7082L11.1465 23.9033V36.7806L19.9996 37.5854L28.8527 36.7806V23.9033L19.9996 24.7082Z" fill="#CCEFFF"/>
<path d="M20 24.7082V37.5854L28.8531 36.7806V23.9033L20 24.7082Z" fill="#ACE3FC"/>
<path d="M21.2074 15.2917H18.793V19.7183H21.2074V15.2917Z" fill="#CCEFFF"/>
<path d="M19.9995 16.0966C24.4444 16.0966 28.0477 12.4932 28.0477 8.04828C28.0477 3.60334 24.4444 0 19.9995 0C15.5545 0 11.9512 3.60334 11.9512 8.04828C11.9512 12.4932 15.5545 16.0966 19.9995 16.0966Z" fill="#FFD2D2"/>
<path d="M20 0V16.0966C24.445 16.0966 28.0483 12.4933 28.0483 8.04828C28.0483 3.60328 24.445 0 20 0Z" fill="#F9C0C0"/>
</svg>
