<svg width="40" height="40" viewBox="0 0 40 40" fill="none" xmlns="http://www.w3.org/2000/svg">
<g clip-path="url(#clip0_1574_11925)">
<path d="M33.6847 5.29388C30.0272 1.87988 25.1672 0 20 0C14.8328 0 9.97284 1.87988 6.31531 5.29388C2.64587 8.71857 0.625 13.2755 0.625 18.125C0.625 20.6949 1.18866 23.1787 2.30011 25.5072C3.31451 27.6321 4.7348 29.5279 6.52557 31.1481L4.40338 37.9385C4.25049 38.428 4.74731 38.894 5.22644 38.7076L13.9032 35.3333C15.8658 35.9418 17.916 36.25 20 36.25C25.1672 36.25 30.0272 34.3701 33.6847 30.9561C37.3541 27.5314 39.375 22.9745 39.375 18.125C39.375 13.2755 37.3541 8.71857 33.6847 5.29388Z" fill="#78D67F"/>
<path d="M22.5 34.9999C11.4542 34.9999 2.5 26.885 2.5 16.8749C2.5 10.7971 5.80139 5.41864 10.867 2.13037C9.21356 2.95923 7.68066 4.01941 6.31531 5.29382C2.64587 8.71851 0.625 13.2754 0.625 18.1249C0.625 20.6948 1.18866 23.1786 2.30011 25.5071C3.31451 27.6321 4.7348 29.5278 6.52557 31.148L4.40338 37.9385C4.25049 38.4277 4.74701 38.894 5.22644 38.7075L13.9032 35.3332C15.8658 35.9417 17.916 36.2499 20 36.2499C23.5297 36.2499 26.9156 35.3723 29.8734 33.728C27.5919 34.5486 25.1041 34.9999 22.5 34.9999Z" fill="#65D06C"/>
<path d="M23.125 18.125C23.125 16.402 21.723 15 20 15C18.277 15 16.875 16.402 16.875 18.125C16.875 19.848 18.277 21.25 20 21.25C21.723 21.25 23.125 19.848 23.125 18.125Z" fill="#F4F5F7"/>
<path d="M21.875 21.25H18.125C16.7465 21.25 15.625 22.3715 15.625 23.75V28.125C15.625 28.4702 15.9048 28.75 16.25 28.75H23.75C24.0952 28.75 24.375 28.4702 24.375 28.125V23.75C24.375 22.3715 23.2535 21.25 21.875 21.25Z" fill="#F4F5F7"/>
<path d="M18.75 18.125C18.75 16.7282 19.671 15.5429 20.9375 15.144C20.6415 15.0507 20.3265 15 20 15C18.277 15 16.875 16.402 16.875 18.125C16.875 19.848 18.277 21.25 20 21.25C20.3265 21.25 20.6415 21.1993 20.9375 21.106C19.671 20.7071 18.75 19.5218 18.75 18.125Z" fill="#EAEBEF"/>
<path d="M17.5 28.125V23.75C17.5 22.3715 18.6215 21.25 20 21.25H18.125C16.7465 21.25 15.625 22.3715 15.625 23.75V28.125C15.625 28.4702 15.9048 28.75 16.25 28.75H18.125C17.7798 28.75 17.5 28.4702 17.5 28.125Z" fill="#EAEBEF"/>
<path d="M32.5 12.5C32.5 10.777 31.098 9.375 29.375 9.375C27.652 9.375 26.25 10.777 26.25 12.5C26.25 14.223 27.652 15.625 29.375 15.625C31.098 15.625 32.5 14.223 32.5 12.5Z" fill="#F4F5F7"/>
<path d="M31.25 15.625H27.5C26.1215 15.625 25 16.7465 25 18.125V22.5C25 22.8452 25.2798 23.125 25.625 23.125H33.125C33.4702 23.125 33.75 22.8452 33.75 22.5V18.125C33.75 16.7465 32.6285 15.625 31.25 15.625Z" fill="#F4F5F7"/>
<path d="M28.125 12.5C28.125 11.1032 29.046 9.91791 30.3125 9.51904C30.0165 9.42566 29.7015 9.375 29.375 9.375C27.652 9.375 26.25 10.777 26.25 12.5C26.25 14.223 27.652 15.625 29.375 15.625C29.7015 15.625 30.0165 15.5743 30.3125 15.481C29.046 15.0821 28.125 13.8968 28.125 12.5Z" fill="#EAEBEF"/>
<path d="M26.875 22.5V18.125C26.875 16.7465 27.9965 15.625 29.375 15.625H27.5C26.1215 15.625 25 16.7465 25 18.125V22.5C25 22.8452 25.2798 23.125 25.625 23.125H27.5C27.1548 23.125 26.875 22.8452 26.875 22.5Z" fill="#EAEBEF"/>
<path d="M13.75 12.5C13.75 10.777 12.348 9.375 10.625 9.375C8.90198 9.375 7.5 10.777 7.5 12.5C7.5 14.223 8.90198 15.625 10.625 15.625C12.348 15.625 13.75 14.223 13.75 12.5Z" fill="#F4F5F7"/>
<path d="M12.5 15.625H8.75C7.37152 15.625 6.25 16.7465 6.25 18.125V22.5C6.25 22.8452 6.52985 23.125 6.875 23.125H14.375C14.7202 23.125 15 22.8452 15 22.5V18.125C15 16.7465 13.8785 15.625 12.5 15.625Z" fill="#F4F5F7"/>
<path d="M9.375 12.5C9.375 11.1032 10.296 9.91791 11.5625 9.51904C11.2665 9.42566 10.9515 9.375 10.625 9.375C8.90198 9.375 7.5 10.777 7.5 12.5C7.5 14.223 8.90198 15.625 10.625 15.625C10.9515 15.625 11.2665 15.5743 11.5625 15.481C10.296 15.0821 9.375 13.8968 9.375 12.5Z" fill="#EAEBEF"/>
<path d="M8.125 22.5V18.125C8.125 16.7465 9.24652 15.625 10.625 15.625H8.75C7.37152 15.625 6.25 16.7465 6.25 18.125V22.5C6.25 22.8452 6.52985 23.125 6.875 23.125H8.75C8.40485 23.125 8.125 22.8452 8.125 22.5Z" fill="#EAEBEF"/>
<path d="M31.1719 28.75C28.0704 28.75 25.5469 31.2735 25.5469 34.375C25.5469 37.4765 28.0704 40 31.1719 40C34.2734 40 36.7969 37.4765 36.7969 34.375C36.7969 31.2735 34.2734 28.75 31.1719 28.75Z" fill="#FB675F"/>
<path d="M33.125 38.7501C30.0235 38.7501 27.5 36.2266 27.5 33.1251C27.5 31.5549 28.1473 30.1337 29.1882 29.1123C27.0627 29.9161 25.5469 31.9715 25.5469 34.3751C25.5469 37.4766 28.0704 40.0001 31.1719 40.0001C32.7032 40.0001 34.093 39.3842 35.1086 38.3878C34.4913 38.6213 33.8229 38.7501 33.125 38.7501Z" fill="#FA544B"/>
<path d="M31.25 36.8749C30.9048 36.8749 30.625 36.595 30.625 36.2499V34.0087L30.4419 34.1918C30.1978 34.4359 29.8022 34.4359 29.5581 34.1918C29.314 33.9476 29.314 33.5521 29.5581 33.308L30.8081 32.058C30.9869 31.8792 31.2555 31.8255 31.4893 31.9225C31.7227 32.0192 31.875 32.2472 31.875 32.4999V36.2499C31.875 36.595 31.5952 36.8749 31.25 36.8749Z" fill="#F4F5F7"/>
</g>
<defs>
<clipPath id="clip0_1574_11925">
<rect width="40" height="40" fill="white"/>
</clipPath>
</defs>
</svg>
