<svg width="40" height="40" viewBox="0 0 40 40" fill="none" xmlns="http://www.w3.org/2000/svg">
<g clip-path="url(#clip0_1574_11845)">
<path d="M20.8594 40H16.6406C16.4249 40 16.25 39.8251 16.25 39.6094V1.20727C16.25 0.540469 16.7905 0 17.4573 0H20.0428C20.7095 0 21.25 0.540469 21.25 1.20727V39.6094C21.25 39.8251 21.0751 40 20.8594 40Z" fill="#C4573A"/>
<path d="M16.25 5.35962H21.25V25.3596H16.25V5.35962Z" fill="#A74B30"/>
<path d="M20.0427 0H18.8355V36.7453C18.8355 37.6538 18.099 38.3903 17.1905 38.3903H16.25V39.6094C16.25 39.8251 16.4249 40 16.6406 40H20.8594C21.0751 40 21.25 39.8251 21.25 39.6094V1.20727C21.25 0.540469 20.7095 0 20.0427 0Z" fill="#A74B30"/>
<path d="M35.244 23.75H1.60969C0.720703 23.75 0 23.0293 0 22.1403V5.35969C0 4.4707 0.720703 3.75 1.60969 3.75H35.244C35.915 3.75 36.5155 4.16625 36.7512 4.79445L39.8976 13.1848C40.0342 13.5491 40.0342 13.9507 39.8976 14.3152L36.7512 22.7055C36.5155 23.3337 35.9149 23.75 35.244 23.75Z" fill="#D8ECFE"/>
<path d="M33.75 12.2346C33.75 9.82228 31.7873 7.85962 29.375 7.85962H26.25C25.5596 7.85962 25 8.41923 25 9.10962V21.6096C25 22.3 25.5596 22.8596 26.25 22.8596H29.375C31.7873 22.8596 33.75 20.897 33.75 18.4846C33.75 17.2613 33.2447 16.1543 32.4327 15.3596C33.2447 14.5649 33.75 13.4579 33.75 12.2346ZM31.25 18.4846C31.25 19.5185 30.4089 20.3596 29.375 20.3596H27.5V16.6096H29.375C30.4089 16.6096 31.25 17.4507 31.25 18.4846ZM27.5 14.1096V10.3596H29.375C30.4089 10.3596 31.25 11.2007 31.25 12.2346C31.25 13.2685 30.4089 14.1096 29.375 14.1096H27.5Z" fill="#C4E2FF"/>
<path d="M18.125 7.85962C15.7126 7.85962 13.75 9.82228 13.75 12.2346V18.4846C13.75 20.897 15.7126 22.8596 18.125 22.8596C20.5374 22.8596 22.5 20.897 22.5 18.4846V12.2346C22.5 9.8222 20.5374 7.85962 18.125 7.85962ZM20 18.4846C20 19.5184 19.1588 20.3596 18.125 20.3596C17.0912 20.3596 16.25 19.5184 16.25 18.4846V12.2346C16.25 11.2008 17.0912 10.3596 18.125 10.3596C19.1588 10.3596 20 11.2008 20 12.2346V18.4846Z" fill="#C4E2FF"/>
<path d="M8.74983 9.10962V18.4385C8.74983 19.4539 7.96186 20.3199 6.94725 20.3582C5.88054 20.3986 4.99983 19.5425 4.99983 18.4846C4.99983 17.7847 4.42452 17.2191 3.721 17.2349C3.04358 17.2502 2.49304 17.8533 2.50007 18.5309C2.52491 20.917 4.46968 22.8516 6.85983 22.8596C9.27452 22.8677 11.2498 20.8269 11.2498 18.4122V9.10962C11.2498 8.41923 10.6902 7.85962 9.99983 7.85962C9.30944 7.85962 8.74983 8.41923 8.74983 9.10962Z" fill="#C4E2FF"/>
<path d="M39.8975 13.1848L36.7511 4.79445C36.5155 4.16617 35.9149 3.75 35.244 3.75H33.7438L36.3488 10.6966C36.6978 11.6274 36.6978 12.6532 36.3488 13.5841L34.1406 19.4723C33.5388 21.0771 32.0046 22.1403 30.2906 22.1403H0.8925C0.586016 22.1403 0.287344 22.1067 0 22.0432V22.1403C0 23.0293 0.720703 23.75 1.60969 23.75H35.244C35.915 23.75 36.5156 23.3338 36.7512 22.7055L39.8976 14.3152C40.0341 13.9508 40.0341 13.5492 39.8975 13.1848Z" fill="#C4E2FF"/>
<path d="M33.75 10.625C33.75 8.21266 31.7873 6.25 29.375 6.25H26.25C25.5596 6.25 25 6.80961 25 7.5V20C25 20.6904 25.5596 21.25 26.25 21.25H29.375C31.7873 21.25 33.75 19.2873 33.75 16.875C33.75 15.6517 33.2447 14.5447 32.4327 13.75C33.2447 12.9553 33.75 11.8483 33.75 10.625ZM31.2497 16.8428C31.2675 17.8916 30.3813 18.75 29.3323 18.75H27.8906C27.6749 18.75 27.5 18.5751 27.5 18.3594V15.3906C27.5 15.1749 27.6749 15 27.8906 15H29.375C30.3981 15 31.2325 15.8237 31.2497 16.8428ZM27.5 12.1094V9.14062C27.5 8.92492 27.6749 8.75 27.8906 8.75H29.3323C30.3813 8.75 31.2674 9.60836 31.2497 10.6572C31.2325 11.6763 30.3981 12.5 29.375 12.5H27.8906C27.6749 12.5 27.5 12.3251 27.5 12.1094Z" fill="#00AA73"/>
<path d="M18.125 6.25C15.7126 6.25 13.75 8.21266 13.75 10.625V16.875C13.75 19.2873 15.7126 21.25 18.125 21.25C20.5374 21.25 22.5 19.2873 22.5 16.875V10.625C22.5 8.21266 20.5374 6.25 18.125 6.25ZM20 16.875C20 17.9088 19.1588 18.75 18.125 18.75C17.0912 18.75 16.25 17.9088 16.25 16.875V10.625C16.25 9.59117 17.0912 8.75 18.125 8.75C19.1588 8.75 20 9.59117 20 10.625V16.875Z" fill="#00AA73"/>
<path d="M8.74983 7.5V16.8289C8.74983 17.8443 7.96186 18.7102 6.94725 18.7486C5.88054 18.789 4.99983 17.9329 4.99983 16.875C4.99983 16.1751 4.42452 15.6095 3.721 15.6253C3.04358 15.6405 2.49304 16.2437 2.50007 16.9212C2.52491 19.3074 4.46968 21.242 6.85983 21.25C9.27452 21.2581 11.2498 19.2173 11.2498 16.8026V7.5C11.2498 6.80961 10.6902 6.25 9.99983 6.25C9.30944 6.25 8.74983 6.80961 8.74983 7.5Z" fill="#00AA73"/>
</g>
<defs>
<clipPath id="clip0_1574_11845">
<rect width="40" height="40" fill="white"/>
</clipPath>
</defs>
</svg>
