<svg width="40" height="40" viewBox="0 0 40 40" fill="none" xmlns="http://www.w3.org/2000/svg">
<path d="M13.5357 32.3046L14.8576 32.6376C15.9623 32.9159 17.1271 32.8336 18.1818 32.4032C18.3691 32.3267 18.4714 32.1237 18.4215 31.9277L17.0204 26.4221L15.5416 20.0234L9.39844 30.9277L13.5357 32.3046Z" fill="#C03A2B"/>
<path d="M7.0918 37.6188C7.0918 38.0389 7.43233 38.3795 7.8525 38.3795H11.1358C11.4711 38.3795 11.7669 38.1599 11.8639 37.8389L15.3557 26.2891L17.7209 18.0615L7.0918 19.0906V37.6188Z" fill="#C7C0C7"/>
<path d="M9.00036 38.0292V19.501L17.5449 18.6737L17.7209 18.0615L7.0918 19.0906V37.6188C7.0918 38.0389 7.43233 38.3796 7.8525 38.3796H9.0862C9.03168 38.2745 9.00036 38.1556 9.00036 38.0292Z" fill="#B8AFB8"/>
<path d="M36.4469 14.032H34.0234V22.091H36.4469C38.4087 22.091 39.999 20.5007 39.999 18.5389V17.584C39.9991 15.6222 38.4087 14.032 36.4469 14.032Z" fill="#C7C0C7"/>
<path d="M33.7048 4.42869L10.2379 11.8441L8.11133 14.5826L8.30772 21.7264L10.1815 24.2608L33.7048 31.6947L35.5408 32.2704V3.71606L33.7048 4.42869Z" fill="#F8F7F8"/>
<path d="M35.5403 3.71606L33.7044 4.42869L31.6916 5.06475V24.9344C31.6916 26.3847 30.2877 27.421 28.9018 26.9936L8.27734 20.6347L8.30738 21.7263L10.1812 24.2607L33.7045 31.6946L34.5204 31.9505V29.3392H35.5404L35.5403 3.71606Z" fill="#EFEDEE"/>
<path d="M35.0765 33.0659C34.3191 33.0659 33.7051 32.4519 33.7051 31.6944V4.4286C33.7051 3.6712 34.3191 3.05713 35.0765 3.05713C35.834 3.05713 36.448 3.67112 36.448 4.4286V31.6945C36.448 32.4519 35.834 33.0659 35.0765 33.0659Z" fill="#E64C3C"/>
<path d="M8.48103 22.099H2.07694C0.929882 22.099 0 21.1692 0 20.0221V16.1006C0 14.9536 0.929882 14.0237 2.07694 14.0237H8.48103V22.099Z" fill="#C7C0C7"/>
<path d="M8.27763 14.0237V19.9194H1.87353C1.04793 19.9194 0.334816 19.4377 0 18.7399V20.0222C0 21.1692 0.929882 22.0991 2.07694 22.0991H8.48103V14.0237H8.27763Z" fill="#B8AFB8"/>
<path d="M10.2376 11.844L10.1812 24.2607L7.09076 23.2839C6.43208 23.0754 5.98438 22.465 5.98438 21.7741V14.3483C5.98438 13.6582 6.43208 13.047 7.09076 12.8385L10.2376 11.844Z" fill="#E64C3C"/>
<path d="M5.98438 19.9277V21.7741C5.98438 22.465 6.43208 23.0754 7.09076 23.2839L10.1812 24.2607L10.195 21.2259L5.98438 19.9277Z" fill="#C03A2B"/>
<path d="M18.8165 13.4331C22.0785 13.4331 24.7229 10.7887 24.7229 7.52674C24.7229 4.26474 22.0785 1.62036 18.8165 1.62036C15.5545 1.62036 12.9102 4.26474 12.9102 7.52674C12.9102 10.7887 15.5545 13.4331 18.8165 13.4331Z" fill="#E64C3C"/>
<path d="M14.5069 7.38669C14.5069 4.72902 16.2028 2.46793 18.5716 1.62598C15.423 1.75417 12.9102 4.34678 12.9102 7.52688C12.9102 10.7889 15.5545 13.4333 18.8165 13.4333C19.0451 13.4333 19.2702 13.42 19.492 13.3948C16.6551 12.8653 14.5069 10.3771 14.5069 7.38669Z" fill="#C03A2B"/>
<path d="M19.178 11.3378C18.8444 11.3378 18.5741 11.0675 18.5741 10.7339V4.92367H17.807C17.4734 4.92367 17.2031 4.65335 17.2031 4.31974C17.2031 3.98614 17.4734 3.71582 17.807 3.71582H19.178C19.5116 3.71582 19.782 3.98614 19.782 4.31974V10.7339C19.782 11.0675 19.5116 11.3378 19.178 11.3378Z" fill="#F8F7F8"/>
</svg>
