<svg width="40" height="40" viewBox="0 0 40 40" fill="none" xmlns="http://www.w3.org/2000/svg">
<g clip-path="url(#clip0_1574_12020)">
<path d="M1.33398 32V37.3334C1.33398 38.8061 2.52787 40 4.00062 40H36.0006C37.4734 40 38.6672 38.8061 38.6672 37.3334V32H1.33398Z" fill="#B5DBFF"/>
<path d="M36.817 32V37.3334C36.817 38.8061 35.6231 40 34.1504 40H36.0015C37.4743 40 38.6681 38.8061 38.6681 37.3334V32H36.817Z" fill="#97D0FF"/>
<path d="M1.33398 10.6667V34.6667C1.33398 36.1394 2.52787 37.3333 4.00054 37.3333H36.0006C37.4734 37.3333 38.6672 36.1394 38.6672 34.6667V10.6667H1.33398Z" fill="#EDF5FF"/>
<path d="M36.817 10.6667V34.6667C36.817 36.1394 35.6231 37.3333 34.1504 37.3333H36.0015C37.4743 37.3333 38.6681 36.1394 38.6681 34.6667V10.6667H36.817Z" fill="#D5E8FE"/>
<path d="M38.6672 12V5.33331C38.6672 3.86055 37.4733 2.66675 36.0006 2.66675H4.00054C2.52779 2.66675 1.33398 3.86063 1.33398 5.33331V12H38.6672Z" fill="#FF435B"/>
<path d="M9.33347 5.93698H8.00011C7.66675 5.93698 7.39648 5.66672 7.39648 5.33336C7.39648 5 7.66675 4.72974 8.00011 4.72974H9.33347C9.66683 4.72974 9.93709 5 9.93709 5.33336C9.93709 5.66672 9.66683 5.93698 9.33347 5.93698Z" fill="#E3374E"/>
<path d="M13.3335 5.93698H12.0001C11.6667 5.93698 11.3965 5.66672 11.3965 5.33336C11.3965 5 11.6667 4.72974 12.0001 4.72974H13.3334C13.6667 4.72974 13.937 5 13.937 5.33336C13.937 5.66672 13.6668 5.93698 13.3335 5.93698Z" fill="#E3374E"/>
<path d="M28.0014 5.93698H26.6681C26.3347 5.93698 26.0645 5.66672 26.0645 5.33336C26.0645 5 26.3347 4.72974 26.6681 4.72974H28.0014C28.3347 4.72974 28.605 5 28.605 5.33336C28.605 5.66672 28.3347 5.93698 28.0014 5.93698Z" fill="#E3374E"/>
<path d="M32.0014 5.93698H30.6681C30.3347 5.93698 30.0645 5.66672 30.0645 5.33336C30.0645 5 30.3347 4.72974 30.6681 4.72974H32.0014C32.3348 4.72974 32.6051 5 32.6051 5.33336C32.6051 5.66672 32.3348 5.93698 32.0014 5.93698Z" fill="#E3374E"/>
<path d="M9.33406 5.33336C9.33406 6.0697 9.93101 6.66672 10.6674 6.66672C11.4038 6.66672 12.0008 6.06978 12.0008 5.33336V1.33336C12.0007 0.596942 11.4038 0 10.6673 0C9.93101 0 9.33398 0.596942 9.33398 1.33336L9.33406 5.33336Z" fill="#596C76"/>
<path d="M28 5.33336C28 6.0697 28.5969 6.66672 29.3334 6.66672C30.0698 6.66672 30.6667 6.06978 30.6667 5.33336V1.33336C30.6667 0.596942 30.0698 0 29.3334 0C28.5969 0 28 0.596942 28 1.33336V5.33336Z" fill="#596C76"/>
<path d="M36.0015 2.66675H34.1504C35.6231 2.66675 36.817 3.86063 36.817 5.33331V12.0001H38.6681V5.33339C38.6681 3.86063 37.4743 2.66675 36.0015 2.66675Z" fill="#E3374E"/>
<path d="M1.33398 8.72974H38.6673V9.93698H1.33398V8.72974Z" fill="#E3374E"/>
<path d="M14.6667 17.937H12.0001C11.6667 17.937 11.3965 17.6667 11.3965 17.3334C11.3965 17 11.6667 16.7297 12.0001 16.7297H14.6667C15.0001 16.7297 15.2704 17 15.2704 17.3334C15.2704 17.6667 15.0002 17.937 14.6667 17.937Z" fill="#596C76"/>
<path d="M14.6667 24.6037H12.0001C11.6667 24.6037 11.3965 24.3335 11.3965 24.0001C11.3965 23.6667 11.6667 23.3965 12.0001 23.3965H14.6667C15.0001 23.3965 15.2704 23.6667 15.2704 24.0001C15.2704 24.3335 15.0002 24.6037 14.6667 24.6037Z" fill="#596C76"/>
<path d="M21.3348 17.937H18.6681C18.3347 17.937 18.0645 17.6667 18.0645 17.3334C18.0645 17 18.3347 16.7297 18.6681 16.7297H21.3348C21.6682 16.7297 21.9384 17 21.9384 17.3334C21.9384 17.6667 21.6682 17.937 21.3348 17.937Z" fill="#596C76"/>
<path d="M8.00073 24.6037H5.33409C5.00073 24.6037 4.73047 24.3335 4.73047 24.0001C4.73047 23.6667 5.00073 23.3965 5.33409 23.3965H8.00073C8.33409 23.3965 8.60435 23.6667 8.60435 24.0001C8.60435 24.3335 8.33409 24.6037 8.00073 24.6037Z" fill="#596C76"/>
<path d="M21.3348 24.6037H18.6681C18.3347 24.6037 18.0645 24.3335 18.0645 24.0001C18.0645 23.6667 18.3347 23.3965 18.6681 23.3965H21.3348C21.6682 23.3965 21.9384 23.6667 21.9384 24.0001C21.9384 24.3335 21.6682 24.6037 21.3348 24.6037Z" fill="#596C76"/>
<path d="M28.0007 17.937H25.3341C25.0007 17.937 24.7305 17.6667 24.7305 17.3334C24.7305 17 25.0007 16.7297 25.3341 16.7297H28.0007C28.3341 16.7297 28.6044 17 28.6044 17.3334C28.6044 17.6667 28.3341 17.937 28.0007 17.937Z" fill="#596C76"/>
<path d="M34.6667 17.937H32.0001C31.6667 17.937 31.3965 17.6667 31.3965 17.3334C31.3965 17 31.6667 16.7297 32.0001 16.7297H34.6667C35.0001 16.7297 35.2704 17 35.2704 17.3334C35.2704 17.6667 35.0001 17.937 34.6667 17.937Z" fill="#596C76"/>
<path d="M28.0007 24.6037H25.3341C25.0007 24.6037 24.7305 24.3335 24.7305 24.0001C24.7305 23.6667 25.0007 23.3965 25.3341 23.3965H28.0007C28.3341 23.3965 28.6044 23.6667 28.6044 24.0001C28.6044 24.3335 28.3341 24.6037 28.0007 24.6037Z" fill="#596C76"/>
<path d="M34.6667 24.6037H32.0001C31.6667 24.6037 31.3965 24.3335 31.3965 24.0001C31.3965 23.6667 31.6667 23.3965 32.0001 23.3965H34.6667C35.0001 23.3965 35.2704 23.6667 35.2704 24.0001C35.2704 24.3335 35.0001 24.6037 34.6667 24.6037Z" fill="#596C76"/>
<path d="M28.0007 31.2702H25.3341C25.0007 31.2702 24.7305 31 24.7305 30.6666C24.7305 30.3332 25.0007 30.063 25.3341 30.063H28.0007C28.3341 30.063 28.6044 30.3332 28.6044 30.6666C28.6044 31 28.3341 31.2702 28.0007 31.2702Z" fill="#596C76"/>
<path d="M21.3348 31.2702H18.6681C18.3347 31.2702 18.0645 31 18.0645 30.6666C18.0645 30.3332 18.3347 30.063 18.6681 30.063H21.3348C21.6682 30.063 21.9384 30.3332 21.9384 30.6666C21.9384 31 21.6682 31.2702 21.3348 31.2702Z" fill="#596C76"/>
<path d="M14.6667 31.2702H12.0001C11.6667 31.2702 11.3965 31 11.3965 30.6666C11.3965 30.3332 11.6667 30.063 12.0001 30.063H14.6667C15.0001 30.063 15.2704 30.3332 15.2704 30.6666C15.2704 31 15.0002 31.2702 14.6667 31.2702Z" fill="#596C76"/>
<path d="M8.00073 31.2702H5.33409C5.00073 31.2702 4.73047 31 4.73047 30.6666C4.73047 30.3332 5.00073 30.063 5.33409 30.063H8.00073C8.33409 30.063 8.60435 30.3332 8.60435 30.6666C8.60435 31 8.33409 31.2702 8.00073 31.2702Z" fill="#596C76"/>
</g>
<defs>
<clipPath id="clip0_1574_12020">
<rect width="40" height="40" fill="white"/>
</clipPath>
</defs>
</svg>
