<svg width="40" height="40" viewBox="0 0 40 40" fill="none" xmlns="http://www.w3.org/2000/svg">
<g clip-path="url(#clip0_1574_11803)">
<path d="M3.94476 36.0067L0.117174 14.2757C0.0802153 14.066 0.0571765 13.854 0.0482085 13.6412C-0.00867494 11.1775 1.7604 9.0493 4.19304 8.65501L11.5792 7.35156L11.3792 36.0067H3.94476Z" fill="#35495E"/>
<path d="M32.3729 35.0551C32.2448 35.5869 31.8146 35.9927 31.2763 36.0896L9.53839 39.9241C8.16824 40.1633 6.76144 39.8009 5.67742 38.9294C4.59339 38.058 3.93714 36.7619 3.87632 35.3724C3.822 33.0168 5.44375 30.9528 7.74529 30.4482L13.8349 32.1586H13.828L8.34529 33.131C7.7338 33.2385 7.20271 33.6144 6.89814 34.1555C6.59357 34.6965 6.5476 35.3456 6.77288 35.9241C7.16296 36.8559 8.15368 37.3858 9.14529 37.1931L25.7591 34.262L32.3729 35.0551Z" fill="#2C3E50"/>
<path d="M13.8273 32.1587L8.34452 33.1311C7.73303 33.2386 7.20194 33.6146 6.89737 34.1556C6.59279 34.6966 6.54682 35.3457 6.7721 35.9242C7.16219 36.856 8.1529 37.386 9.14452 37.1932L25.7583 34.2621L13.8273 32.1587Z" fill="#F9EAB0"/>
<path d="M8.8457 22.8765L12.6781 1.14271C12.8153 0.39564 13.5271 -0.102678 14.276 0.0240866L35.8464 3.82754C38.2808 4.22213 40.0512 6.35168 39.9947 8.81719C39.9853 9.02903 39.9622 9.24004 39.9257 9.44891L36.0933 31.1827L8.8457 22.8765Z" fill="#E64C3C"/>
<path d="M31.337 7.22349C31.2965 7.22347 31.2562 7.22001 31.2163 7.21314L15.5949 4.45866C15.2424 4.37172 15.0177 4.02633 15.081 3.6688C15.1443 3.31127 15.474 3.06408 15.8349 3.10349L31.4556 5.85452C31.8079 5.91624 32.0546 6.23704 32.0237 6.59337C31.9928 6.9497 31.6947 7.22329 31.337 7.22349Z" fill="#3F5C6C"/>
<path d="M28.0211 10.138C27.9806 10.1381 27.9402 10.1344 27.9004 10.127L17.7128 8.33317C17.3463 8.25883 17.1058 7.9059 17.1707 7.53758C17.2356 7.16925 17.5823 6.91979 17.9522 6.97524L28.1404 8.76834C28.4948 8.82822 28.7438 9.15018 28.7126 9.5082C28.6814 9.86622 28.3805 10.1403 28.0211 10.138Z" fill="#3F5C6C"/>
<path d="M29.4605 13.2181L15.1949 10.6981C14.8198 10.6319 14.4619 10.8823 14.3956 11.2574L13.1956 18.0505C13.1294 18.4257 13.3798 18.7836 13.7549 18.8498L28.0205 21.3698C28.3956 21.4361 28.7535 21.1857 28.8198 20.8105L30.0198 14.0174C30.086 13.6423 29.8356 13.2844 29.4605 13.2181Z" fill="#ECF0F1"/>
<path d="M39.9922 8.81365C39.984 9.02649 39.9609 9.2385 39.9232 9.44814L36.0887 31.1792L30.7715 29.5585L33.8542 12.0826L34.5853 7.95848L35.3301 3.73779L35.8473 3.82745C38.2789 4.22368 40.0469 6.35066 39.9922 8.81365Z" fill="#C03A2B"/>
<path d="M32.0147 25.5585L10.4423 21.7585C10.3625 21.7448 10.2818 21.7378 10.2009 21.7378C9.48607 21.7396 8.89109 22.2872 8.8301 22.9994C8.7691 23.7116 9.26231 24.3524 9.96639 24.4757L31.6974 28.3033C32.3084 28.4139 32.8378 28.792 33.1409 29.3339C33.4439 29.8759 33.4886 30.5249 33.2629 31.1033C32.875 32.0331 31.8857 32.5609 30.8974 32.3654L9.24915 28.5516C9.16943 28.5379 9.08868 28.5309 9.00777 28.5309C8.29165 28.5291 7.69329 29.0757 7.6304 29.7891C7.5675 30.5024 8.061 31.1453 8.76639 31.2688L30.5043 35.0964C31.8735 35.3364 33.2797 34.9753 34.3637 34.1051C35.4477 33.235 36.1046 31.9402 36.1664 30.5516C36.2205 28.085 34.4497 25.9553 32.0147 25.5585Z" fill="#802F34"/>
<path d="M33.2618 31.1034C32.8739 32.0332 31.8846 32.561 30.8963 32.3655L9.24805 28.5517L9.96529 24.4758L31.6963 28.3034C32.3073 28.4141 32.8367 28.7921 33.1397 29.334C33.4427 29.876 33.4875 30.525 33.2618 31.1034Z" fill="#F9EAB0"/>
</g>
<defs>
<clipPath id="clip0_1574_11803">
<rect width="40" height="40" fill="white"/>
</clipPath>
</defs>
</svg>
