<svg width="40" height="40" viewBox="0 0 40 40" fill="none" xmlns="http://www.w3.org/2000/svg">
<g clip-path="url(#clip0_1574_11861)">
<path d="M39.1927 40H27.4726C27.0271 40 26.666 39.6389 26.666 39.1934V0.806563C26.6659 0.361094 27.0271 0 27.4726 0H39.1927C39.6382 0 39.9993 0.361094 39.9993 0.806563V39.1934C39.9993 39.6389 39.6382 40 39.1927 40Z" fill="#EE6161"/>
<path d="M12.5267 40H0.806563C0.361094 40 0 39.6389 0 39.1934V0.806563C0 0.361094 0.361094 0 0.806563 0H12.5267C12.9722 0 13.3333 0.361094 13.3333 0.806563V39.1934C13.3334 39.6389 12.9722 40 12.5267 40Z" fill="#6FD7A3"/>
<path d="M25.8607 40H14.1405C13.6951 40 13.334 39.6389 13.334 39.1934V0.806563C13.334 0.361094 13.6951 0 14.1405 0H25.8607C26.3062 0 26.6673 0.361094 26.6673 0.806563V39.1934C26.6673 39.6389 26.3062 40 25.8607 40Z" fill="#FFD15B"/>
<path d="M39.1928 0H36.7799V33.1585C36.7799 36.0479 34.4376 38.3902 31.5482 38.3902H26.666V39.1934C26.666 39.6388 27.0271 39.9999 27.4726 39.9999H39.1927C39.6382 39.9999 39.9993 39.6388 39.9993 39.1934V0.806563C39.9994 0.361094 39.6383 0 39.1928 0Z" fill="#E94444"/>
<path d="M12.5267 0H10.1138V33.1585C10.1138 36.0479 7.77148 38.3902 4.88211 38.3902H0V39.1934C0 39.6389 0.361094 40 0.806563 40H12.5267C12.9722 40 13.3333 39.6389 13.3333 39.1934V0.806563C13.3334 0.361094 12.9722 0 12.5267 0Z" fill="#3EC3A4"/>
<path d="M25.8608 0H23.4479V33.1585C23.4479 36.0479 21.1055 38.3902 18.2162 38.3902H13.334V39.1934C13.334 39.6388 13.6951 39.9999 14.1405 39.9999H25.8607C26.3062 39.9999 26.6673 39.6388 26.6673 39.1934V0.806563C26.6673 0.361094 26.3063 0 25.8608 0Z" fill="#FFC344"/>
<path d="M9.58406 27.7778H3.75055C3.52047 27.7778 3.33398 27.5914 3.33398 27.3613V7.83956L6.66734 6.66675L10.0006 7.83956V27.3613C10.0006 27.5913 9.81414 27.7778 9.58406 27.7778Z" fill="white"/>
<path d="M10.0006 7.77771H3.33398V3.74981C3.33398 3.51974 3.52047 3.33325 3.75055 3.33325H9.58406C9.81414 3.33325 10.0006 3.51974 10.0006 3.74981V7.77771Z" fill="#01D0FB"/>
<path d="M22.9161 27.7779H17.0826C16.8525 27.7779 16.666 27.5914 16.666 27.3614V7.83964L19.9994 6.66675L23.3327 7.83956V27.3613C23.3327 27.5914 23.1462 27.7779 22.9161 27.7779Z" fill="white"/>
<path d="M23.3327 7.77771H16.666V3.74981C16.666 3.51974 16.8525 3.33325 17.0826 3.33325H22.9161C23.1462 3.33325 23.3327 3.51974 23.3327 3.74981V7.77771Z" fill="#01D0FB"/>
<path d="M36.2501 27.7778H30.4166C30.1865 27.7778 30 27.5914 30 27.3613V7.83956L33.3334 6.66675L36.6667 7.83956V27.3613C36.6666 27.5913 36.4802 27.7778 36.2501 27.7778Z" fill="white"/>
<path d="M36.6666 7.77771H30V3.74981C30 3.51974 30.1865 3.33325 30.4166 3.33325H36.2501C36.4802 3.33325 36.6666 3.51974 36.6666 3.74981V7.77771Z" fill="#01D0FB"/>
<path d="M6.66734 36.6667C8.50831 36.6667 10.0007 35.1743 10.0007 33.3334C10.0007 31.4924 8.50831 30 6.66734 30C4.82638 30 3.33398 31.4924 3.33398 33.3334C3.33398 35.1743 4.82638 36.6667 6.66734 36.6667Z" fill="#838383"/>
<path d="M20.0013 36.6667C21.8423 36.6667 23.3347 35.1743 23.3347 33.3334C23.3347 31.4924 21.8423 30 20.0013 30C18.1604 30 16.668 31.4924 16.668 33.3334C16.668 35.1743 18.1604 36.6667 20.0013 36.6667Z" fill="#838383"/>
<path d="M33.3334 36.6667C35.1743 36.6667 36.6667 35.1743 36.6667 33.3334C36.6667 31.4924 35.1743 30 33.3334 30C31.4924 30 30 31.4924 30 33.3334C30 35.1743 31.4924 36.6667 33.3334 36.6667Z" fill="#838383"/>
</g>
<defs>
<clipPath id="clip0_1574_11861">
<rect width="40" height="40" fill="white"/>
</clipPath>
</defs>
</svg>
