<svg width="40" height="40" viewBox="0 0 40 40" fill="none" xmlns="http://www.w3.org/2000/svg">
<g clip-path="url(#clip0_1574_11879)">
<path d="M17.3984 21.1382H1.30078C0.582344 21.1382 0 20.5558 0 19.8374V1.30078C0 0.582422 0.582422 0 1.30078 0H17.3984C18.1169 0 18.6992 0.582422 18.6992 1.30078V19.8373C18.6992 20.5558 18.1169 21.1382 17.3984 21.1382Z" fill="#E19974"/>
<path d="M17.399 0H15.2852C16.0036 0 16.5859 0.582422 16.5859 1.30078V19.8373C16.5859 20.5558 16.0035 21.1381 15.2852 21.1381H17.399C18.1174 21.1381 18.6998 20.5557 18.6998 19.8373V1.30078C18.6998 0.582422 18.1174 0 17.399 0Z" fill="#DC8758"/>
<path d="M2.60156 17.8861V3.25195C2.60156 2.89273 2.89273 2.60156 3.25195 2.60156H15.4471C15.8063 2.60156 16.0975 2.89273 16.0975 3.25195V17.8861C16.0975 18.2453 15.8063 18.5365 15.4471 18.5365H3.25195C2.89273 18.5365 2.60156 18.2453 2.60156 17.8861Z" fill="#62DBFB"/>
<path d="M17.3984 39.9999H1.30078C0.582422 39.9999 0 39.4175 0 38.6991V25.0405C0 24.3221 0.582422 23.7397 1.30078 23.7397H17.3984C18.1169 23.7397 18.6992 24.3222 18.6992 25.0405V38.6991C18.6992 39.4175 18.1169 39.9999 17.3984 39.9999Z" fill="#D77F4A"/>
<path d="M17.399 23.7397H15.2852C16.0036 23.7397 16.5859 24.3222 16.5859 25.0405V38.6991C16.5859 39.4176 16.0035 39.9999 15.2852 39.9999H17.399C18.1174 39.9999 18.6998 39.4175 18.6998 38.6991V25.0405C18.6998 24.3222 18.1174 23.7397 17.399 23.7397Z" fill="#C86D36"/>
<path d="M2.60156 36.748V26.9919C2.60156 26.6327 2.89273 26.3416 3.25195 26.3416H15.4471C15.8063 26.3416 16.0975 26.6327 16.0975 26.9919V36.748C16.0975 37.1073 15.8063 37.3984 15.4471 37.3984H13.8151L9.34953 35.5323L4.88398 37.3984H3.25195C2.89273 37.3984 2.60156 37.1073 2.60156 36.748Z" fill="#FFE177"/>
<path d="M13.8159 37.3984C11.8168 34.1228 9.35031 30.0813 9.35031 30.0813L4.88477 37.3984H13.8159Z" fill="#FE5694"/>
<path d="M9.34961 31.3821C10.068 31.3821 10.6504 30.7997 10.6504 30.0813C10.6504 29.3629 10.068 28.7805 9.34961 28.7805C8.63121 28.7805 8.04883 29.3629 8.04883 30.0813C8.04883 30.7997 8.63121 31.3821 9.34961 31.3821Z" fill="#DFF6FD"/>
<path d="M38.6992 15.6099H22.6016C21.8831 15.6099 21.3008 16.1923 21.3008 16.9106V38.6993C21.3008 39.4178 21.8832 40.0001 22.6016 40.0001H38.6992C39.4177 40.0001 40 39.4177 40 38.6993V16.9106C40 16.1923 39.4176 15.6099 38.6992 15.6099Z" fill="#E19974"/>
<path d="M38.6998 40.0001H36.5859C37.3044 40.0001 37.8867 39.4177 37.8867 38.6993V16.9106C37.8867 16.1922 37.3043 15.6099 36.5859 15.6099H38.6998C39.4182 15.6099 40.0005 16.1923 40.0005 16.9106V38.6993C40.0005 39.4177 39.4181 40.0001 38.6998 40.0001Z" fill="#DC8758"/>
<path d="M23.9023 18.8618V36.748C23.9023 37.1072 24.1935 37.3984 24.5527 37.3984H26.0681L30.6503 35.9063L35.2325 37.3984H36.7479C37.1071 37.3984 37.3983 37.1072 37.3983 36.748V18.8618C37.3983 18.5026 37.1071 18.2114 36.7479 18.2114H24.5528C24.1936 18.2114 23.9023 18.5026 23.9023 18.8618Z" fill="#DFF6FD"/>
<path d="M31.4019 28.1782L29.6749 25.7644L28.4962 29.5665L29.4809 31.199L27.0827 34.1265L26.0684 37.3985H33.2815L33.7702 36.2583L31.4019 28.1782Z" fill="#00F2A6"/>
<path d="M32.5348 31.0229L32.8037 29.5663L31.2638 24.599C31.1804 24.3298 30.9313 24.1462 30.6495 24.1462C30.3676 24.1462 30.1185 24.3298 30.0351 24.599L29.6738 25.7642L33.2804 37.3983H35.2316L34.2173 34.1262L32.5348 31.0229Z" fill="#05E39C"/>
<path d="M32.8041 29.5664H28.4956L27.082 34.1264H34.2177L32.5353 31.023L32.8041 29.5664Z" fill="#0ED290"/>
<path d="M34.2183 34.1264L32.8047 29.5664H30.8535L32.2671 34.1264H34.2183Z" fill="#00C285"/>
<path d="M38.6992 0H22.6016C21.8831 0 21.3008 0.582422 21.3008 1.30078V11.7073C21.3008 12.4257 21.8832 13.008 22.6016 13.008H38.6992C39.4177 13.008 40 12.4256 40 11.7073V1.30078C40 0.582422 39.4176 0 38.6992 0Z" fill="#D77F4A"/>
<path d="M38.6998 13.0081H36.5859C37.3044 13.0081 37.8867 12.4257 37.8867 11.7073V1.30078C37.8867 0.582344 37.3043 0 36.5859 0H38.6998C39.4181 0 40.0005 0.582422 40.0005 1.30078V11.7073C40.0005 12.4257 39.4181 13.0081 38.6998 13.0081Z" fill="#C86D36"/>
<path d="M37.3983 5.2032V3.25195C37.3983 2.89273 37.1071 2.60156 36.7479 2.60156H24.5527C24.1935 2.60156 23.9023 2.89273 23.9023 3.25195V7.80477L31.0205 9.59789L37.3983 5.2032Z" fill="#62DBFB"/>
<path d="M24.5528 10.4066H36.748C37.1072 10.4066 37.3984 10.1154 37.3984 9.75618V5.20337H33.0438C32.3102 5.20337 31.5981 5.45142 31.0233 5.9072L29.5176 7.1011C28.9427 7.55688 28.2307 7.80493 27.497 7.80493H23.9023V9.75618C23.9023 10.1154 24.1936 10.4066 24.5528 10.4066Z" fill="#DFF6FD"/>
<path d="M29.8416 21.5196L30.1136 20.9804C30.3356 20.5404 30.9638 20.5404 31.1857 20.9804L31.4577 21.5196C31.5653 21.7329 31.7891 21.8621 32.0277 21.8487L32.6306 21.8146C33.1227 21.7869 33.4367 22.3309 33.1667 22.7431L32.8358 23.2483C32.7049 23.4481 32.7049 23.7065 32.8358 23.9063L33.1667 24.4115C33.4368 24.8237 33.1227 25.3677 32.6306 25.34L32.0277 25.3059C31.7891 25.2925 31.5654 25.4217 31.4577 25.635L31.1857 26.1742C30.9638 26.6142 30.3356 26.6142 30.1136 26.1742L29.8416 25.635C29.734 25.4217 29.5102 25.2925 29.2717 25.3059L28.6687 25.34C28.1766 25.3677 27.8626 24.8238 28.1326 24.4115L28.4635 23.9063C28.5945 23.7065 28.5945 23.4481 28.4635 23.2483L28.1326 22.7431C27.8625 22.3309 28.1766 21.7869 28.6687 21.8146L29.2717 21.8487C29.5102 21.862 29.7339 21.7328 29.8416 21.5196Z" fill="#FFE177"/>
<path d="M13.3278 9.98313H12.6286L12.9291 9.68258C13.158 9.45375 13.158 9.08273 12.9291 8.85398C12.7002 8.62516 12.3293 8.62516 12.1005 8.85398L10.9713 9.9832H9.93633V8.94828L11.0655 7.81906C11.2944 7.59023 11.2944 7.21922 11.0655 6.99047C10.8366 6.76164 10.4657 6.76164 10.2369 6.99047L9.93633 7.29102V6.5918C9.93633 6.2682 9.67406 6.00586 9.35039 6.00586C9.02672 6.00586 8.76445 6.2682 8.76445 6.5918V7.29102L8.46391 6.99047C8.235 6.76164 7.86406 6.76164 7.63523 6.99047C7.40641 7.2193 7.40641 7.59031 7.63523 7.81906L8.76445 8.94828V9.9832H7.72969L6.60047 8.85398C6.37156 8.62516 6.00062 8.62516 5.7718 8.85398C5.54297 9.08281 5.54297 9.45383 5.7718 9.68258L6.07234 9.98313H5.37305C5.04937 9.98313 4.78711 10.2455 4.78711 10.5691C4.78711 10.8927 5.04937 11.155 5.37305 11.155H6.07234L5.7718 11.4555C5.54297 11.6844 5.54297 12.0554 5.7718 12.2841C5.88625 12.3985 6.03625 12.4558 6.18617 12.4558C6.33609 12.4558 6.48609 12.3986 6.60055 12.2841L7.72977 11.1549H8.76461V12.1898L7.63539 13.319C7.40656 13.5478 7.40656 13.9188 7.63539 14.1476C7.8643 14.3764 8.23523 14.3764 8.46406 14.1476L8.76461 13.847V14.5462C8.76461 14.8698 9.02688 15.1322 9.35055 15.1322C9.67422 15.1322 9.93648 14.8698 9.93648 14.5462V13.847L10.237 14.1476C10.3515 14.262 10.5015 14.3192 10.6514 14.3192C10.8013 14.3192 10.9513 14.262 11.0658 14.1476C11.2946 13.9187 11.2946 13.5477 11.0658 13.319L9.93656 12.1898V11.1549H10.9715L12.1007 12.2841C12.2152 12.3985 12.3652 12.4558 12.5151 12.4558C12.665 12.4558 12.815 12.3986 12.9295 12.2841C13.1583 12.0553 13.1583 11.6843 12.9295 11.4555L12.6289 11.155H13.3281C13.6518 11.155 13.9141 10.8927 13.9141 10.5691C13.9141 10.2455 13.6515 9.98313 13.3278 9.98313Z" fill="#DFF6FD"/>
</g>
<defs>
<clipPath id="clip0_1574_11879">
<rect width="40" height="40" fill="white"/>
</clipPath>
</defs>
</svg>
